<?xml version="1.0" encoding="UTF-8"?>
<svg width="36px" height="52px" viewBox="0 0 36 52" version="1.1" xmlns="http://www.w3.org/2000/svg" xmlns:xlink="http://www.w3.org/1999/xlink">
    <!-- Generator: Sketch 57.1 (83088) - https://sketch.com -->
    <title>Group 6</title>
    <desc>Created with Sketch.</desc>
    <g id="HOME-Mobile" stroke="none" stroke-width="1" fill="none" fill-rule="evenodd">
        <g id="JAB20-Home-Mobile" transform="translate(-189.000000, -4727.000000)">
            <g id="SPEAKERS" transform="translate(-280.000000, 3680.000000)">
                <g id="BIG-BUTTON-Talk" transform="translate(305.000000, 980.000000)">
                    <g id="Group-6" transform="translate(164.000000, 67.000000)">
                        <g id="Group-3" transform="translate(0.000000, 0.500000)" fill="#1B21F4">
                            <path d="M18.0614812,0.210375 C18.0614812,0.210375 14.1009187,25.0423859 7.61473125,26.2048533 C1.12798125,27.3673207 7.90948125,7.60925543 2.89760625,20.393625 C0.13966875,27.4288533 -0.31651875,32.3065598 0.16948125,35.8660272 C0.61216875,44.3647337 7.88416875,51.1399728 18.0614812,50.9980598 C27.6644812,50.8639076 35.4506062,43.3253315 35.4506062,33.8609511 C35.4506062,20.151375 18.0614812,0.210375 18.0614812,0.210375" id="Fill-1"></path>
                        </g>
                        <path d="M7.66252259,32.690277 C8.42782943,30.5202227 21.8844283,36.1937785 19.695929,18.4579291 C19.0847967,13.5023405 29.5953817,29.011879 27.7914839,36.6505147 C25.8228364,44.9904077 18.2393414,46.3695285 14.3354416,45.080641 C8.75621564,43.238657 5.52968201,38.7347917 7.66252259,32.690277" id="Fill-4" fill="#5FFFD3"></path>
                    </g>
                </g>
            </g>
        </g>
    </g>
</svg>