<?xml version="1.0" encoding="utf-8"?>
<!-- Generator: Adobe Illustrator 28.1.0, SVG Export Plug-In . SVG Version: 6.00 Build 0)  -->
<svg version="1.1" id="Ebene_1" xmlns="http://www.w3.org/2000/svg" xmlns:xlink="http://www.w3.org/1999/xlink" x="0px" y="0px"
	 viewBox="0 0 115 164" style="enable-background:new 0 0 115 164;" xml:space="preserve">
<style type="text/css">
	.st0{fill-rule:evenodd;clip-rule:evenodd;fill:#5FFFD3;}
	.st1{fill:#1B21F4;}
</style>
<g id="HOME-Mobile">
	<g id="JAB20-Home-Mobile" transform="translate(-20.000000, -58.000000)">
		<g id="JAB20-LOGO" transform="translate(20.000000, 58.000000)">
			<path id="drop" class="st0" d="M114.8,108.5c0,30.5-25.7,55.3-57.4,55.3S0,139.1,0,108.5C0,68.3,57.4,0,57.4,0
				S114.8,64.3,114.8,108.5"/>
		</g>
	</g>
</g>
<g>
	<g>
		<path class="st1" d="M71.5,107.1c-0.6-0.1-1.1,0-1.5,0.4c-0.3,0.3-0.5,0.9-0.6,1.7c-0.1,0.8,0,1.4,0.2,1.8
			c0.2,0.4,0.7,0.6,1.3,0.7c0.6,0.1,1.1,0,1.4-0.4c0.3-0.3,0.5-0.9,0.6-1.7c0.1-0.8,0-1.4-0.2-1.8C72.6,107.4,72.1,107.2,71.5,107.1
			z"/>
		<path class="st1" d="M45.8,107.3c0-0.3-0.1-0.5-0.3-0.6c-0.2-0.1-0.4-0.2-0.8-0.1l-1.6,0.2l0.2,1.7l1.6-0.2
			C45.6,108.2,45.9,107.9,45.8,107.3z"/>
		<polygon class="st1" points="26.3,112.8 27.3,112.5 26.5,111.3 		"/>
		<path class="st1" d="M93.1,105.3c-11.4-3.8-23.7-5.8-36.3-5.8c0,0,0,0,0,0c-12.6,0-24.9,2-36.3,5.8c-3.6,1.2-7.1,2.6-10.5,4.1
			c0.5,6.1,2.2,11.9,4.9,17.1c4-2,8.4-3.7,12.9-5.1c9.3-2.9,19-4.3,29-4.3c0,0,0,0,0,0c10,0,19.8,1.5,29,4.3
			c4.5,1.4,8.8,3.1,12.9,5.1c2.6-5.2,4.3-11,4.9-17.1C100.2,107.9,96.7,106.5,93.1,105.3z M39.1,111.4c-0.3,0.4-0.8,0.7-1.5,0.8
			l-2,0.3l-0.8-4.5l2-0.3c0.7-0.1,1.3,0,1.7,0.3c0.4,0.3,0.7,0.9,0.9,1.7C39.5,110.4,39.4,111,39.1,111.4z M23.3,117.2
			c-0.4,0.7-1.1,1.2-2.1,1.5c-0.7,0.2-1.4,0.4-2,0.3l-0.7-2c0.5,0,1,0,1.5-0.2c0.5-0.2,0.7-0.4,0.9-0.6c0.1-0.2,0.1-0.6,0-1
			l-1.7-5.1l2.4-0.8l1.8,5.4C23.7,115.8,23.6,116.6,23.3,117.2z M23.9,109.5c-0.1,0-0.3-0.1-0.3-0.2c-0.1-0.2,0-0.4,0.2-0.4
			c0.1,0,6.2-2.2,14.6-3.4c0.2,0,0.3,0.1,0.4,0.3c0,0.2-0.1,0.3-0.3,0.4c-8.4,1.2-14.4,3.4-14.5,3.4C24,109.5,23.9,109.5,23.9,109.5
			z M31.8,113.4l-1.3,0.3l-1-4.5l1.1-0.2l2.2,2l-0.5-2.4l1.3-0.3l1,4.5l-1.1,0.2l-2.2-2L31.8,113.4z M29.7,113.9l-1.3,0.4l-0.6-0.8
			l-1.3,0.4l-0.1,1l-1.3,0.4l0.5-4.9l1.4-0.4L29.7,113.9z M39.7,114c-8.4,1.2-14.4,3.4-14.5,3.4c0,0-0.1,0-0.1,0
			c-0.1,0-0.3-0.1-0.3-0.2c-0.1-0.2,0-0.4,0.2-0.4c0.1,0,6.2-2.2,14.6-3.4c0.2,0,0.3,0.1,0.4,0.3C40,113.9,39.9,114,39.7,114z
			 M48.3,112.4c-0.4,0.5-1.1,0.8-2,0.9l-4.8,0.5l-0.9-8.5l4.7-0.5c0.9-0.1,1.5,0,2,0.4c0.5,0.4,0.8,0.9,0.9,1.7c0,0.4,0,0.8-0.1,1.1
			c-0.1,0.3-0.3,0.6-0.6,0.8c0.4,0.1,0.7,0.3,1,0.6c0.2,0.3,0.4,0.6,0.4,1.1C49,111.3,48.8,111.9,48.3,112.4z M50.5,113l-0.3-8.6
			l6.5-0.2l0.1,1.9l-4,0.1l0,1.4l3.5-0.1l0.1,1.9l-3.5,0.1l0,1.4l4-0.1l0.1,1.9L50.5,113z M63.4,113l-2.5-0.1l0.1-3.1l-2.8-5.6
			l2.6,0.1l1.6,3.3l1.9-3.2l2.6,0.1l-3.3,5.3L63.4,113z M75.6,109.9c-0.2,1.5-0.7,2.6-1.5,3.2c-0.8,0.6-1.9,0.8-3.4,0.7
			c-1.4-0.2-2.5-0.7-3.1-1.4c-0.6-0.8-0.9-1.9-0.7-3.4c0.2-1.6,0.7-2.6,1.5-3.2c0.8-0.6,1.9-0.8,3.4-0.7c1.4,0.2,2.5,0.7,3.1,1.4
			C75.5,107.2,75.7,108.4,75.6,109.9z M81.9,115.5l-2.2-5.1l-0.9,4.4l-2.5-0.5l1.8-8.4l2.1,0.4l2.2,5.1l0.9-4.5l2.5,0.5L84,116
			L81.9,115.5z M94.6,114.7c-0.4,1.4-1.1,2.3-1.9,2.8c-0.9,0.5-2,0.5-3.3,0.1l-3.7-1.1l2.5-8.2l3.7,1.1c1.3,0.4,2.2,1,2.7,1.9
			C95,112,95,113.2,94.6,114.7z"/>
		<path class="st1" d="M46,110c-0.2-0.1-0.4-0.2-0.8-0.1l-1.7,0.2l0.2,1.8l1.7-0.2c0.3,0,0.6-0.1,0.7-0.3c0.1-0.2,0.2-0.4,0.2-0.7
			C46.3,110.3,46.2,110.1,46,110z"/>
		<path class="st1" d="M92,111.6c-0.2-0.2-0.6-0.4-1-0.5l-1-0.3l-1.4,4.5l1,0.3c0.4,0.1,0.8,0.2,1.1,0.1c0.3,0,0.6-0.2,0.8-0.5
			c0.2-0.3,0.4-0.7,0.6-1.3c0.2-0.6,0.3-1.1,0.2-1.5C92.3,112.1,92.2,111.8,92,111.6z"/>
		<path class="st1" d="M37.8,109.1c-0.1-0.2-0.2-0.3-0.4-0.3c-0.2,0-0.4-0.1-0.6,0l-0.5,0.1l0.4,2.5l0.5-0.1c0.2,0,0.4-0.1,0.6-0.2
			c0.1-0.1,0.2-0.2,0.3-0.4c0-0.2,0-0.4,0-0.8C38,109.6,37.9,109.3,37.8,109.1z"/>
	</g>
	<g>
		<path class="st1" d="M45.1,138.1c-0.3,0-0.6,0.1-0.8,0.3c-0.2,0.2-0.2,0.5-0.2,1c0,0.4,0.1,0.7,0.2,0.9c0.2,0.2,0.4,0.3,0.7,0.3
			c0.3,0,0.6-0.1,0.7-0.3c0.2-0.2,0.2-0.5,0.2-0.9c0-0.4-0.1-0.8-0.2-1C45.7,138.2,45.4,138.1,45.1,138.1z"/>
		<path class="st1" d="M49.1,132.6c-0.3,0-0.6,0.1-0.8,0.3c-0.2,0.2-0.2,0.5-0.2,1c0,0.4,0.1,0.7,0.2,0.9c0.2,0.2,0.4,0.3,0.7,0.3
			c0.3,0,0.6-0.1,0.7-0.3c0.2-0.2,0.2-0.5,0.2-0.9c0-0.4-0.1-0.8-0.2-1C49.7,132.7,49.5,132.6,49.1,132.6z"/>
		<path class="st1" d="M58.8,138.1H58v1.2h0.8c0.2,0,0.4,0,0.5-0.1c0.1-0.1,0.2-0.2,0.2-0.4c0-0.2,0-0.3-0.1-0.4
			C59.1,138.1,59,138.1,58.8,138.1z"/>
		<polygon class="st1" points="63.7,134.1 64.8,134.1 64.3,132.7 		"/>
		<path class="st1" d="M68.7,132.9c0,0,0.1-0.1,0.1-0.2c0-0.1,0-0.1,0-0.1c0,0-0.1,0-0.1,0h-0.3v0.4h0.2
			C68.6,132.9,68.7,132.9,68.7,132.9z"/>
		<polygon class="st1" points="33.1,127.2 32.5,128.6 33.7,128.6 		"/>
		<path class="st1" d="M54.7,128.1c0.1-0.1,0.2-0.2,0.2-0.4c0-0.2,0-0.3-0.1-0.4c-0.1-0.1-0.2-0.1-0.4-0.1h-0.8v1.2h0.8
			C54.4,128.3,54.5,128.2,54.7,128.1z"/>
		<path class="st1" d="M68.2,133.6c0.1,0.1,0.2,0.1,0.4,0.1c0.1,0,0.3,0,0.4-0.1c0.1-0.1,0.2-0.1,0.3-0.3c0.1-0.1,0.1-0.2,0.1-0.4
			s0-0.3-0.1-0.4c-0.1-0.1-0.1-0.2-0.3-0.3c-0.1-0.1-0.2-0.1-0.4-0.1c-0.1,0-0.3,0-0.4,0.1c-0.1,0.1-0.2,0.1-0.3,0.3
			c-0.1,0.1-0.1,0.2-0.1,0.4s0,0.3,0.1,0.4C68,133.4,68,133.5,68.2,133.6z M68.1,132.4h0.5c0.1,0,0.2,0,0.3,0.1
			c0.1,0.1,0.1,0.1,0.1,0.3c0,0.1,0,0.2-0.1,0.2c0,0.1-0.1,0.1-0.2,0.1c0,0,0.1,0.1,0.1,0.1l0.1,0.3h-0.2l-0.1-0.3c0,0,0,0-0.1-0.1
			c0,0-0.1,0-0.1,0h-0.2v0.4h-0.2V132.4z"/>
		<path class="st1" d="M53.1,132.6c-0.3,0-0.6,0.1-0.8,0.3c-0.2,0.2-0.2,0.5-0.2,1c0,0.4,0.1,0.7,0.2,0.9c0.2,0.2,0.4,0.3,0.7,0.3
			c0.3,0,0.6-0.1,0.7-0.3c0.2-0.2,0.2-0.5,0.2-0.9c0-0.4-0.1-0.8-0.2-1C53.7,132.7,53.4,132.6,53.1,132.6z"/>
		<polygon class="st1" points="61.6,127.2 61,128.6 62.1,128.6 		"/>
		<path class="st1" d="M56.8,118.8C56.7,118.8,56.7,118.8,56.8,118.8C56.7,118.8,56.7,118.8,56.8,118.8c-14.1,0-27.4,2.5-41.1,9.2
			c1.2,2.1,2.5,4.2,4,6.1l0.1,0l0,0.1c7.5,9.5,18.5,16.1,31.1,17.7l0.1,0l0,0c0.3,0,0.5,0.1,0.8,0.1c0.1,0,0.2,0,0.3,0
			c0.3,0,0.7,0.1,1,0.1c0.1,0,0.2,0,0.3,0c0.3,0,0.7,0,1.1,0.1c0,0,0.1,0,0.1,0c0.8,0,1.6,0.1,2.4,0.1c0.8,0,1.6,0,2.4-0.1
			c0,0,0.1,0,0.1,0c0.4,0,0.7,0,1.1-0.1c0.1,0,0.2,0,0.3,0c0.3,0,0.7-0.1,1-0.1c0.1,0,0.2,0,0.3,0c0.3,0,0.5-0.1,0.8-0.1l0,0l0.1,0
			c12.6-1.6,23.7-8.2,31.1-17.7l0-0.1l0.1,0c1.5-1.9,2.8-4,4-6.1C84.1,121.3,70.8,118.8,56.8,118.8z M79.7,126.5h0.8v3h1.8v0.6h-2.5
			V126.5z M76.9,126.5h0.8l1.4,3.6h-0.8l-0.3-0.9h-1.3l-0.3,0.9h-0.8L76.9,126.5z M71.9,126.5h0.7l1.7,2.4v-2.4H75v3.6h-0.7
			l-1.7-2.4v2.4h-0.8V126.5z M67.7,132.5c0.1-0.1,0.2-0.3,0.3-0.3c0.1-0.1,0.3-0.1,0.5-0.1c0.2,0,0.3,0,0.5,0.1
			c0.1,0.1,0.3,0.2,0.3,0.3c0.1,0.1,0.1,0.3,0.1,0.5c0,0.2,0,0.3-0.1,0.5c-0.1,0.1-0.2,0.3-0.3,0.3c-0.1,0.1-0.3,0.1-0.5,0.1
			c-0.2,0-0.3,0-0.5-0.1c-0.1-0.1-0.3-0.2-0.3-0.3c-0.1-0.1-0.1-0.3-0.1-0.5C67.6,132.8,67.6,132.6,67.7,132.5z M66.5,132h0.8v0.9
			l0,1.7h-0.7l0-1.7V132z M63.2,126.5h3v0.6H65v3h-0.8v-3h-1.1V126.5z M61.1,126.5H62l1.4,3.6h-0.8l-0.3-0.9h-1.3l-0.3,0.9h-0.8
			L61.1,126.5z M56.1,126.5h0.7l1.7,2.4v-2.4h0.8v3.6h-0.7l-1.7-2.4v2.4h-0.8V126.5z M52.6,126.5h1.7c0.4,0,0.7,0.1,0.9,0.3
			c0.2,0.2,0.3,0.5,0.3,0.9c0,0.2-0.1,0.5-0.2,0.6s-0.3,0.3-0.5,0.4c0.1,0,0.1,0.1,0.1,0.2s0.1,0.1,0.1,0.2l0.4,1h-0.8l-0.4-1
			c0-0.1-0.1-0.1-0.1-0.2c0,0-0.1,0-0.2,0h-0.6v1.2h-0.8V126.5z M54.8,133.8c0,1.2-0.6,1.8-1.8,1.8c-1.2,0-1.8-0.6-1.8-1.8
			c0-0.7,0.1-1.1,0.4-1.4c0.3-0.3,0.7-0.5,1.3-0.5c0.6,0,1,0.2,1.3,0.5C54.7,132.7,54.8,133.1,54.8,133.8z M42.6,126.5h0.7l1.7,2.4
			v-2.4h0.8v3.6h-0.7l-1.7-2.4v2.4h-0.8V126.5z M41.2,126.5H42v3.6h-0.8V126.5z M35.4,126.5h0.7l1.7,2.4v-2.4h0.8v3.6h-0.7l-1.7-2.4
			v2.4h-0.8V126.5z M32.7,126.5h0.8l1.4,3.6h-0.8l-0.3-0.9h-1.3l-0.3,0.9h-0.8L32.7,126.5z M31.2,134.3c0-0.2,0.2-0.3,0.3-0.3H42
			c0.2,0,0.3,0.2,0.3,0.3c0,0.2-0.2,0.3-0.3,0.3H31.6C31.4,134.6,31.2,134.5,31.2,134.3z M42.9,141c-0.3,0.1-0.7,0.2-1.1,0.2
			c-0.6,0-1.1-0.2-1.4-0.5c-0.3-0.3-0.5-0.8-0.5-1.3c0-0.6,0.2-1.1,0.5-1.4c0.3-0.3,0.8-0.5,1.4-0.5c0.4,0,0.7,0.1,1.1,0.2v0.7
			c-0.3-0.1-0.7-0.2-1-0.2c-0.4,0-0.7,0.1-0.9,0.3c-0.2,0.2-0.3,0.5-0.3,0.9c0,0.4,0.1,0.7,0.3,0.9c0.2,0.2,0.5,0.3,0.9,0.3
			c0.4,0,0.7-0.1,1-0.2V141z M45.1,141.1c-1.2,0-1.8-0.6-1.8-1.8c0-0.7,0.1-1.1,0.4-1.4c0.3-0.3,0.7-0.5,1.3-0.5s1,0.2,1.3,0.5
			c0.3,0.3,0.4,0.8,0.4,1.4C46.8,140.5,46.3,141.1,45.1,141.1z M46.9,134.6c0,0.7-0.4,1.1-1.3,1.1c-0.3,0-0.6,0-0.8-0.1v-0.6
			c0.2,0.1,0.4,0.1,0.7,0.1c0.2,0,0.4,0,0.5-0.1c0.1-0.1,0.1-0.3,0.1-0.5V132h0.8V134.6z M46.1,127.1v-0.6h3v0.6H48v3h-0.8v-3H46.1z
			 M50.5,141.1h-0.7l-1.7-2.4v2.4h-0.8v-3.6H48l1.7,2.4v-2.4h0.8V141.1z M49.1,135.6c-1.2,0-1.8-0.6-1.8-1.8c0-0.7,0.1-1.1,0.4-1.4
			c0.3-0.3,0.7-0.5,1.3-0.5c0.6,0,1,0.2,1.3,0.5c0.3,0.3,0.4,0.8,0.4,1.4C50.9,135,50.3,135.6,49.1,135.6z M49.5,130.1v-3.6h2.6v0.6
			h-1.8v0.9h1.6v0.6h-1.6v0.9h1.8v0.6H49.5z M53.7,138.1h-1.8v0.9h1.6v0.6h-1.6v1.5h-0.8v-3.6h2.5V138.1z M56.7,138.1h-1.8v0.9h1.6
			v0.6h-1.6v0.9h1.8v0.6h-2.6v-3.6h2.6V138.1z M56.1,133.2v2.4h-0.8V132h0.8l1.1,2.2l1.1-2.2H59v3.6h-0.8v-2.4l-0.8,1.7H57
			L56.1,133.2z M59.6,139.8c0,0.1,0.1,0.1,0.1,0.2l0.4,1h-0.8l-0.4-1c0-0.1-0.1-0.1-0.1-0.2c0,0-0.1,0-0.2,0H58v1.2h-0.8v-3.6H59
			c0.4,0,0.7,0.1,0.9,0.3c0.2,0.2,0.3,0.5,0.3,0.9c0,0.2-0.1,0.5-0.2,0.6c-0.1,0.2-0.3,0.3-0.5,0.4
			C59.5,139.7,59.5,139.8,59.6,139.8z M59.6,135.6V132h0.8v3h1.8v0.6H59.6z M63.3,138.1h-1.8v0.9h1.6v0.6h-1.6v0.9h1.8v0.6h-2.6
			v-3.6h2.6V138.1z M63.3,135.6h-0.8l1.4-3.6h0.8l1.4,3.6h-0.8l-0.3-0.9h-1.3L63.3,135.6z M66.9,141.1h-0.7l-1.7-2.4v2.4h-0.8v-3.6
			h0.7l1.7,2.4v-2.4h0.8V141.1z M67.3,135.6h-0.8V135h0.8V135.6z M67.3,130.1h-0.8v-3.6h0.8V130.1z M70.4,141
			c-0.3,0.1-0.7,0.2-1.1,0.2c-0.6,0-1.1-0.2-1.4-0.5c-0.3-0.3-0.5-0.8-0.5-1.3c0-0.6,0.2-1.1,0.5-1.4c0.3-0.3,0.8-0.5,1.4-0.5
			c0.4,0,0.7,0.1,1.1,0.2v0.7c-0.3-0.1-0.7-0.2-1-0.2c-0.4,0-0.7,0.1-0.9,0.3c-0.2,0.2-0.3,0.5-0.3,0.9c0,0.4,0.1,0.7,0.3,0.9
			c0.2,0.2,0.5,0.3,0.9,0.3c0.4,0,0.7-0.1,1-0.2V141z M69.6,130.1c-1.2,0-1.8-0.6-1.8-1.8c0-0.7,0.1-1.1,0.4-1.4
			c0.3-0.3,0.7-0.5,1.3-0.5c0.6,0,1,0.2,1.3,0.5c0.3,0.3,0.4,0.8,0.4,1.4C71.4,129.5,70.8,130.1,69.6,130.1z M73.5,138.1h-1.8v0.9
			h1.6v0.6h-1.6v0.9h1.8v0.6h-2.6v-3.6h2.6V138.1z M81.9,134.6H71.8c-0.2,0-0.3-0.2-0.3-0.3c0-0.2,0.2-0.3,0.3-0.3h10.1
			c0.2,0,0.3,0.2,0.3,0.3C82.2,134.5,82.1,134.6,81.9,134.6z"/>
		<path class="st1" d="M69.6,127.1c-0.3,0-0.6,0.1-0.8,0.3c-0.2,0.2-0.2,0.5-0.2,1c0,0.4,0.1,0.7,0.2,0.9c0.2,0.2,0.4,0.3,0.7,0.3
			c0.3,0,0.6-0.1,0.7-0.3c0.2-0.2,0.2-0.5,0.2-0.9c0-0.4-0.1-0.8-0.2-1C70.2,127.2,70,127.1,69.6,127.1z"/>
		<polygon class="st1" points="77.3,127.2 76.8,128.6 77.9,128.6 		"/>
	</g>
	<path class="st1" d="M56.9,58.7C56.8,58.7,56.8,58.7,56.9,58.7C56.8,58.7,56.8,58.7,56.9,58.7C31,58.7,10,79.6,10.2,105.3
		c0,0.1,0,0.2,0,0.3c0,0.4,0,0.9,0,1.5v0.5l0.5-0.2c1.6-0.7,3.2-1.4,4.9-2.1c2.9-1.1,5.8-2.1,8.7-3l0.2-0.1V102
		c1.8-16.6,15.8-29,32.3-29.1C73.4,73,87.4,85.5,89.1,102v0.2l0.2,0.1c2.9,0.9,5.8,1.9,8.7,3c1.7,0.6,3.3,1.3,4.9,2.1l0.5,0.2v-0.5
		c0-0.6,0-1.1,0-1.5c0-0.1,0-0.2,0-0.3C103.7,79.6,82.6,58.7,56.9,58.7z M96.5,98.5L96.5,98.5c-0.2,0-0.4-0.2-0.5-0.4
		c-3.5-18.2-19.6-32-38.8-32s-35.3,13.8-38.8,32c0,0.2-0.2,0.4-0.5,0.4c-0.3,0-0.5-0.3-0.5-0.6C21,79.3,37.5,65.1,57.2,65.1
		S93.4,79.3,97,97.9C97,98.2,96.8,98.5,96.5,98.5z"/>
	<g>
		<g>
			<path class="st1" d="M40.3,84.6c0.1-0.5,0.3-1,0.6-1.4c0.3-0.4,0.7-0.7,1.1-0.9c0.5-0.2,1.1-0.3,1.9-0.3c0.8,0,1.4,0.1,1.9,0.3
				c0.5,0.2,0.9,0.4,1.1,0.8c0.3,0.3,0.5,0.7,0.6,1.1c0.1,0.4,0.2,0.9,0.2,1.4c0,0.9-0.1,1.6-0.4,2.2c-0.3,0.6-0.6,1.2-1,1.6l-1.8,2
				c-0.1,0.1-0.3,0.3-0.4,0.5c-0.2,0.2-0.3,0.4-0.3,0.6h4v2.6h-7.6c0-0.9,0.1-1.8,0.4-2.6c0.2-0.8,0.7-1.6,1.4-2.4l2-2.3
				c0.3-0.3,0.5-0.7,0.6-1c0.1-0.3,0.2-0.7,0.2-1.2c0-0.6-0.1-0.9-0.2-1.1c-0.1-0.2-0.3-0.3-0.6-0.3c-0.1,0-0.2,0-0.3,0.1
				c-0.1,0-0.2,0.1-0.3,0.2c-0.1,0.1-0.1,0.3-0.2,0.5c0,0.2-0.1,0.5-0.1,0.9v0.6h-2.8C40.2,85.8,40.2,85.2,40.3,84.6z"/>
			<path class="st1" d="M48.5,85.4c0.2-0.9,0.4-1.5,0.7-2.1c0.3-0.5,0.7-0.9,1.2-1.1c0.5-0.2,1.1-0.3,1.8-0.3c0.7,0,1.3,0.1,1.8,0.3
				c0.5,0.2,0.9,0.5,1.2,1.1c0.3,0.5,0.6,1.2,0.7,2.1c0.2,0.9,0.2,2,0.2,3.3c0,1.3-0.1,2.4-0.2,3.3c-0.2,0.9-0.4,1.5-0.7,2
				c-0.3,0.5-0.7,0.8-1.2,1c-0.5,0.2-1.1,0.3-1.8,0.3c-0.7,0-1.3-0.1-1.8-0.3c-0.5-0.2-0.9-0.5-1.2-1c-0.3-0.5-0.6-1.2-0.7-2
				c-0.2-0.9-0.2-2-0.2-3.3C48.3,87.4,48.3,86.3,48.5,85.4z M51.5,92.7c0.1,0.3,0.4,0.5,0.7,0.5c0.3,0,0.5-0.2,0.7-0.5
				c0.1-0.3,0.2-1,0.2-1.9v-4.3c0-0.9-0.1-1.6-0.2-1.9c-0.1-0.3-0.4-0.5-0.7-0.5c-0.3,0-0.5,0.2-0.7,0.5c-0.1,0.3-0.2,1-0.2,1.9v4.3
				C51.3,91.8,51.4,92.4,51.5,92.7z"/>
		</g>
		<g>
			<path class="st1" d="M57.3,84.6c0.1-0.5,0.3-1,0.6-1.4c0.3-0.4,0.7-0.7,1.1-0.9c0.5-0.2,1.1-0.3,1.9-0.3c0.8,0,1.4,0.1,1.9,0.3
				c0.5,0.2,0.9,0.4,1.1,0.8c0.3,0.3,0.5,0.7,0.6,1.1c0.1,0.4,0.2,0.9,0.2,1.4c0,0.9-0.1,1.6-0.4,2.2c-0.3,0.6-0.6,1.2-1,1.6l-1.8,2
				c-0.1,0.1-0.3,0.3-0.4,0.5c-0.2,0.2-0.3,0.4-0.3,0.6h4v2.6H57c0-0.9,0.1-1.8,0.4-2.6c0.2-0.8,0.7-1.6,1.4-2.4l2-2.3
				c0.3-0.3,0.5-0.7,0.6-1c0.1-0.3,0.2-0.7,0.2-1.2c0-0.6-0.1-0.9-0.2-1.1c-0.1-0.2-0.3-0.3-0.6-0.3c-0.1,0-0.2,0-0.3,0.1
				c-0.1,0-0.2,0.1-0.3,0.2c-0.1,0.1-0.1,0.3-0.2,0.5c0,0.2-0.1,0.5-0.1,0.9v0.6h-2.8C57.2,85.8,57.2,85.2,57.3,84.6z"/>
		</g>
		<g>
			<path class="st1" d="M65.5,90.2l4.1-7.9h3.1v8.1h1.2v2.2h-1.2v2.5h-2.8v-2.5h-4.4V90.2z M69.8,90.5v-4.2h0l-2.1,4.2H69.8z"/>
		</g>
	</g>
</g>
</svg>
