<?xml version="1.0" encoding="utf-8"?>
<!-- Generator: Adobe Illustrator 24.3.0, SVG Export Plug-In . SVG Version: 6.00 Build 0)  -->
<svg version="1.1" id="Ebene_1" xmlns="http://www.w3.org/2000/svg" xmlns:xlink="http://www.w3.org/1999/xlink" x="0px" y="0px"
	 viewBox="0 0 1000.8 192.1" style="enable-background:new 0 0 1000.8 192.1;" xml:space="preserve">
<style type="text/css">
	.st0{fill:#1B21F4;}
	.st1{fill:none;}
	.st2{enable-background:new    ;}
</style>
<g>
	<path class="st0" d="M779.8,30.3h48.5v16.8h-31.1v8.4H823v16h-25.8V80h31.1v17h-48.5V30.3z"/>
	<path class="st0" d="M2,56.4c0-5,1.2-9.6,3.7-13.8s5.8-7.5,10-10s8.8-3.7,13.8-3.7s9.6,1.2,13.8,3.7s7.6,5.8,10,10
		c2.5,4.2,3.7,8.8,3.7,13.8v14.5c0,5-1.2,9.6-3.7,13.8s-5.8,7.5-10,10s-8.8,3.7-13.8,3.7s-9.6-1.2-13.8-3.7s-7.5-5.8-10-10
		S2,75.9,2,70.9L2,56.4z"/>
	<path class="st0" d="M86.8,97V30.3h27.9c4.7,0,8.7,0.9,12.1,2.6c3.9,2,7,4.8,9.3,8.5s3.4,7.7,3.4,12.1s-1.1,8.5-3.4,12.2
		s-5.3,6.5-9.2,8.5c-3.3,1.7-7.4,2.6-12.2,2.6h-10.4V97H86.8z"/>
	<path class="st0" d="M168.3,30.3h48.5v16.8h-31.1v8.4h25.8v16h-25.8V80h31.1v17h-48.5V30.3z"/>
	<path class="st0" d="M245.7,96.9V30.3h3.7L296,75.5V30.3h3.5v66.6L245.7,96.9z"/>
	<path class="st0" d="M379.5,92.1c-5-4.4-7.5-10.9-7.4-19.7h15.6c-0.1,3.6,1,6.4,3.3,8.3c2.2,1.9,5.4,2.9,9.4,2.9
		c3.3,0,5.9-0.5,7.8-1.6s2.9-2.7,2.9-5c0-1.8-1-3.2-2.9-4s-3.9-1.4-5.8-1.8s-3.1-0.6-3.5-0.6c-4.9-1-9.2-2.1-12.7-3.5
		c-3.6-1.4-6.6-3.5-9-6.3s-3.6-6.5-3.6-11.1s1.2-8.5,3.6-11.7s5.7-5.6,9.7-7.2c4.1-1.6,8.5-2.4,13.3-2.4c5.8,0,10.8,1.1,15.1,3.3
		c4.2,2.2,7.6,5.5,10,9.9c1.2,2.1,1.9,4.1,2.2,6.1c0.3,1.9,0.4,3.8,0.4,5.7h-15.6c0-3.4-0.9-6-2.8-7.6s-4.7-2.4-8.6-2.4
		c-3.1,0-5.6,0.5-7.3,1.6s-2.6,2.6-2.6,4.4c0,2,1.1,3.5,3.4,4.5s5.2,1.8,8.7,2.6c5.7,1.1,10.2,2.2,13.4,3.3s6,2.9,8.4,5.6
		c2.4,2.7,3.5,6.4,3.5,11.3c0,4.6-1.3,8.6-3.8,11.9c-2.6,3.3-5.9,5.9-10.1,7.6c-4.2,1.8-8.7,2.6-13.5,2.6
		C391.7,98.7,384.6,96.5,379.5,92.1z"/>
	<path class="st0" d="M456.3,42.4c2.5-4.3,5.9-7.7,10.1-10.1c4.2-2.5,8.9-3.7,13.9-3.7s9.7,1.2,13.9,3.7s7.6,5.9,10.1,10.1
		c2.5,4.3,3.7,8.9,3.7,13.9V71c0,5-1.2,9.6-3.7,13.9s-5.9,7.7-10.1,10.1c-4.2,2.5-8.9,3.7-13.9,3.7s-9.7-1.2-13.9-3.7
		s-7.6-5.9-10.1-10.1c-2.5-4.3-3.7-8.9-3.7-13.9V56.3C452.5,51.3,453.8,46.7,456.3,42.4z M472.8,78.9c1.9,2.2,4.4,3.3,7.5,3.3
		c3,0,5.5-1.1,7.4-3.3s2.9-4.8,2.9-7.8V56.2c0-3.1-1-5.7-2.9-7.8s-4.4-3.2-7.4-3.2c-3.1,0-5.6,1.1-7.5,3.2s-2.9,4.7-2.9,7.8V71
		C469.9,74.1,470.9,76.7,472.8,78.9z"/>
	<path class="st0" d="M548.7,94.8c-4.1-2.4-7.4-5.7-9.8-9.8s-3.6-8.6-3.6-13.4V30.3h53.8v41.2c0,4.8-1.2,9.3-3.6,13.4
		s-5.7,7.4-9.8,9.8s-8.6,3.6-13.4,3.6C557.3,98.4,552.9,97.2,548.7,94.8L548.7,94.8z"/>
	<path class="st0" d="M618.2,30.3h25.9c5.6,0,10.1,1,13.6,3c3.4,1.9,6.1,4.5,8,7.8s2.9,7,2.9,11c0,5-1.5,9.4-4.6,13.4
		c-3.1,3.9-6.9,6.5-11.6,7.8l17,23.7h-51.2L618.2,30.3z"/>
	<path class="st0" d="M751.6,71.8c0.1,8.4-2.3,14.9-7.2,19.6c-4.8,4.7-11.5,7-20,7c-5,0-9.7-1.1-13.9-3.4s-7.6-5.6-10.1-9.8
		s-3.7-9.1-3.7-14.5v-14c0-5.4,1.2-10.2,3.6-14.5c2.4-4.2,5.7-7.5,9.9-9.8s8.9-3.5,14-3.5c8.5,0,15.1,2.3,20,6.9
		c4.8,4.6,7.3,11.1,7.3,19.6h-17.2c-0.1-3.3-0.9-5.8-2.6-7.6s-4.2-2.7-7.4-2.7c-2.9,0-5.4,0.9-7.3,2.8s-2.9,4.5-2.9,7.8v15.6
		c0,3.4,1,6,3,7.9s4.5,2.8,7.4,2.8c6.7,0,10-3.4,10-10.3L751.6,71.8z"/>
	<path class="st0" d="M704,172.9c2.1,3.6,5,6.4,8.6,8.5s7.5,3.2,11.7,3.2c4.3,0,8.3-0.9,11.8-2.6s6.3-4.1,8.3-7.2s3-6.5,3.1-10.3
		h3.4c0,4.4-1.2,8.4-3.5,12s-5.5,6.4-9.6,8.5s-8.6,3.1-13.5,3.1c-4.8,0-9.3-1.2-13.5-3.6c-4.1-2.4-7.4-5.7-9.9-9.8
		c-2.4-4.1-3.6-8.6-3.6-13.4v-15.7c0-4.8,1.2-9.3,3.6-13.4s5.6-7.4,9.8-9.8c4.1-2.4,8.6-3.6,13.4-3.6c4.9,0,9.4,1,13.4,3.1
		c4.1,2.1,7.3,4.9,9.6,8.5c2.4,3.6,3.5,7.6,3.5,12h-3.4c-0.1-3.8-1.1-7.3-3.2-10.3c-2-3.1-4.8-5.5-8.3-7.2s-7.4-2.6-11.7-2.6
		c-4.2,0-8.1,1.1-11.7,3.2s-6.4,4.9-8.5,8.5s-3.2,7.5-3.2,11.7v15.7C700.8,165.4,701.9,169.3,704,172.9L704,172.9z"/>
	<path class="st0" d="M780.6,120.1h46.9v3.5h-43.4v27h37.7v3.5h-37.7v29h43.4v3.5h-46.9V120.1z"/>
	<path class="st0" d="M219.1,186.7h-51.2v-66.6h25.9c5.6,0,10.1,1,13.6,3c3.4,1.9,6.1,4.5,8,7.8c1.9,3.3,2.9,7,2.9,11
		c0,5-1.5,9.4-4.6,13.4c-3.1,3.9-6.9,6.5-11.6,7.8L219.1,186.7z M171.4,125.9v34.4H196L171.4,125.9z M171.4,183.1h41l-14-19.4
		l-3,0.1h-24V183.1z M173.9,123.6l26,36.4c4.3-0.9,7.8-3,10.6-6.4s4.2-7.3,4.2-11.7c0-3.5-0.9-6.7-2.6-9.6s-4.1-5.1-7.3-6.6
		c-2.8-1.4-6.5-2.1-11-2.1L173.9,123.6z"/>
	<path class="st0" d="M388.5,151.2c-3.4-1.3-6.1-3.1-8-5.4s-2.9-5.2-2.9-8.8c0-3.7,1-7,2.9-9.8s4.7-5,8.2-6.5s7.6-2.3,12.3-2.3
		c4.5,0,8.6,0.9,12.3,2.8s6.7,4.5,8.9,7.9s3.3,7.2,3.3,11.6H422c0-3.8-0.9-7.1-2.8-10s-4.4-5.1-7.6-6.7s-6.7-2.3-10.6-2.3
		c-3.4,0-6.7,0.5-9.7,1.6s-5.4,2.7-7.3,5c-1.9,2.2-2.8,5-2.8,8.4c0,3.1,0.9,5.5,2.7,7.3s4.1,3.2,7,4.2s6.9,2,12.1,3.1
		s9.3,2.1,12.2,3.1s5.4,2.6,7.4,4.9s3,5.5,3,9.7c0,4.1-1.1,7.6-3.3,10.5c-2.2,2.8-5.1,5-8.8,6.4c-3.6,1.4-7.6,2.1-11.9,2.1
		c-5.3,0-10-1-14-3s-7.1-4.8-9.2-8.4s-3.2-7.7-3.2-12.4h3.5c0,4.1,0.9,7.7,2.7,10.7s4.5,5.4,7.9,7.1s7.5,2.5,12.3,2.5
		c5.9,0,10.7-1.4,14.6-4.2s5.8-6.6,5.8-11.5c0-3.3-0.8-5.9-2.5-7.7s-3.7-3.1-6.3-3.9c-2.5-0.8-6.3-1.7-11.3-2.7
		C396.4,153.7,392,152.5,388.5,151.2L388.5,151.2z"/>
	<path class="st0" d="M494.1,122.3c4.2,2.5,7.5,5.8,10,10s3.7,8.8,3.7,13.8v14.5c0,5-1.2,9.6-3.7,13.8s-5.8,7.5-10,10
		s-8.8,3.7-13.8,3.7s-9.6-1.2-13.8-3.7s-7.5-5.8-10-10s-3.7-8.8-3.7-13.8v-14.5c0-5,1.2-9.6,3.7-13.8s5.8-7.5,10-10
		s8.8-3.7,13.8-3.7S489.8,119.9,494.1,122.3z M459.6,172.7c2.1,3.7,5,6.6,8.7,8.7s7.7,3.2,12,3.2s8.3-1.1,12-3.2s6.6-5,8.7-8.7
		s3.2-7.7,3.2-12v-14.5c0-4.3-1.1-8.3-3.2-12s-5-6.6-8.7-8.7s-7.7-3.2-12-3.2s-8.3,1.1-12,3.2s-6.6,5-8.7,8.7s-3.2,7.7-3.2,12v14.5
		C456.3,165,457.4,169,459.6,172.7z"/>
	<path class="st0" d="M535.3,120.1h53.9v41.2c0,4.9-1.2,9.3-3.6,13.4s-5.7,7.4-9.9,9.8c-4.1,2.4-8.6,3.6-13.5,3.6
		c-4.8,0-9.3-1.2-13.4-3.6s-7.4-5.7-9.8-9.8s-3.6-8.6-3.6-13.4v-41.2L535.3,120.1z M538.8,123.6v37.6c0,4.2,1.1,8.1,3.2,11.7
		s4.9,6.4,8.5,8.5s7.5,3.2,11.7,3.2s8.1-1.1,11.7-3.2s6.4-4.9,8.5-8.5s3.2-7.5,3.2-11.7v-37.6H538.8z"/>
	<path class="st0" d="M669.4,186.7h-51.2v-66.6h25.9c5.6,0,10.1,1,13.6,3c3.4,1.9,6.1,4.5,8,7.8c1.9,3.3,2.9,7,2.9,11
		c0,5-1.5,9.4-4.6,13.4c-3.1,3.9-6.9,6.5-11.6,7.8L669.4,186.7z M621.7,125.9v34.4h24.6L621.7,125.9z M621.7,183.1h41l-14-19.4
		l-3,0.1h-24V183.1z M624.2,123.6l26,36.4c4.3-0.9,7.8-3,10.6-6.4s4.2-7.3,4.2-11.7c0-3.5-0.9-6.7-2.6-9.6s-4.1-5.1-7.3-6.6
		c-2.8-1.4-6.5-2.1-11-2.1L624.2,123.6z"/>
	<path class="st0" d="M246.7,120.1h46.9v3.5h-43.4v27h37.7v3.5h-37.7v29h43.4v3.5h-46.9L246.7,120.1z"/>
	<path class="st0" d="M349.4,159.6c0,6.5-5.3,11.8-11.8,11.8s-11.8-5.3-11.8-11.8c0-8.6,11.8-23.2,11.8-23.2
		S349.4,150.2,349.4,159.6z"/>
</g>
<path class="st1" d="M865.1,5.3h426.7v139.8H865.1L865.1,5.3z"/>
<g class="st2">
	<path class="st0" d="M869.3,88.8h6.4v2.7h-9.5v-1.8c0-1.1,0-1.9,0.1-2.5s0.3-1,0.6-1.4s0.8-0.7,1.4-1l2.9-1.2
		c0.4-0.2,0.7-0.3,0.8-0.4c0.2-0.1,0.3-0.2,0.3-0.4s0.1-0.4,0.1-0.7c0-0.4-0.1-0.6-0.2-0.8s-0.3-0.3-0.6-0.3s-0.8-0.1-1.4-0.1
		c-1,0-2.2,0.1-3.7,0.3v-2.5c0.6-0.1,1.4-0.2,2.2-0.3c0.9-0.1,1.7-0.1,2.4-0.1c1,0,1.8,0.1,2.5,0.3s1.2,0.5,1.6,1.1s0.6,1.3,0.6,2.3
		c0,1.2-0.2,2-0.5,2.6c-0.4,0.6-0.9,1-1.7,1.3l-1.6,0.6l-1.7,0.7c-0.4,0.1-0.6,0.3-0.7,0.5c-0.1,0.1-0.1,0.3-0.2,0.4s0,0.4,0,0.6
		L869.3,88.8z"/>
	<path class="st0" d="M883.5,91.4v-2.6h-6.2v-2.3l4.4-8.2h3.6l-4.6,7.9h2.8l1-3.1h2.2v3.1h1.6v2.6h-1.6v2.6H883.5z"/>
	<path class="st0" d="M902.6,91.4v-5.1h-4.2v5.1h-3.3V78.3h3.3v5.1h4.2v-5.1h3.3v13.1H902.6z"/>
	<path class="st0" d="M910.1,91c-0.8-0.4-1.3-1-1.5-1.9s-0.3-2.3-0.3-4.3s0.1-3.4,0.3-4.3s0.7-1.5,1.5-1.9s2.1-0.6,3.9-0.6
		s3.1,0.2,3.9,0.6s1.3,1,1.5,1.9c0.2,0.8,0.3,2.3,0.3,4.3s-0.1,3.4-0.3,4.3c-0.2,0.8-0.7,1.5-1.5,1.9s-2.1,0.6-3.9,0.6
		S910.8,91.4,910.1,91z M915.6,88.7c0.3-0.1,0.5-0.4,0.5-0.9c0.1-0.5,0.1-1.4,0.1-2.9s0-2.4-0.1-2.9s-0.3-0.8-0.5-0.9
		c-0.3-0.1-0.8-0.2-1.7-0.2s-1.4,0.1-1.7,0.2s-0.5,0.4-0.6,0.9s-0.1,1.5-0.1,2.9s0,2.4,0.1,2.9s0.3,0.8,0.6,0.9s0.8,0.2,1.7,0.2
		S915.4,88.8,915.6,88.7z"/>
	<path class="st0" d="M932.5,78.3v7.2c0,1.7-0.1,3-0.3,3.8s-0.7,1.4-1.4,1.7s-1.9,0.5-3.5,0.5s-2.8-0.2-3.5-0.5s-1.2-0.9-1.4-1.7
		s-0.3-2.1-0.3-3.8v-7.2h3.3v7.9c0,0.9,0,1.5,0.1,1.9s0.2,0.6,0.5,0.7s0.7,0.2,1.4,0.2s1.1-0.1,1.4-0.2s0.4-0.3,0.5-0.7
		s0.1-1,0.1-1.9v-7.9H932.5z"/>
	<path class="st0" d="M942.4,91.4l-1.7-4.6h-2.3v4.6h-3.3V78.3h6.3c1.2,0,2.1,0.2,2.7,0.5s1,0.8,1.2,1.4s0.3,1.4,0.3,2.4
		c0,0.9-0.1,1.7-0.4,2.4c-0.2,0.7-0.7,1.2-1.4,1.5l2,5h-3.4L942.4,91.4z M941.6,84.1c0.3-0.1,0.5-0.2,0.6-0.4s0.1-0.6,0.1-1.1
		s0-0.9-0.1-1.1s-0.3-0.4-0.5-0.4s-0.8-0.1-1.5-0.1h-1.7v3.2h1.7C940.8,84.2,941.3,84.2,941.6,84.1z"/>
	<path class="st0" d="M947.9,91.2v-2.6c1.5,0.2,2.8,0.2,3.9,0.2c0.6,0,1.1,0,1.4-0.1s0.6-0.1,0.7-0.2s0.2-0.2,0.2-0.4s0-0.4,0-0.6
		c0-0.3,0-0.5-0.1-0.7c-0.1-0.1-0.2-0.2-0.3-0.3c-0.2-0.1-0.4-0.1-0.8-0.2l-2.4-0.3c-0.9-0.1-1.5-0.3-2-0.7
		c-0.5-0.3-0.8-0.8-0.9-1.3s-0.2-1.2-0.2-2c0-1.1,0.2-2,0.6-2.6s1-1,1.7-1.1s1.6-0.3,2.7-0.3c0.8,0,1.5,0,2.2,0.1s1.4,0.2,2.2,0.3
		v2.5c-1.5-0.2-2.7-0.2-3.7-0.2s-1.7,0.1-2,0.2c-0.2,0.1-0.3,0.2-0.3,0.3s-0.1,0.3-0.1,0.6s0,0.5,0.1,0.7s0.1,0.2,0.3,0.3
		c0.1,0.1,0.4,0.1,0.8,0.2l2.8,0.3c0.6,0.1,1,0.2,1.4,0.3c0.4,0.2,0.7,0.4,0.9,0.8c0.4,0.5,0.6,1.4,0.6,2.6s-0.2,2.2-0.6,2.8
		s-0.9,1-1.6,1.2s-1.5,0.3-2.6,0.3C951,91.6,949.3,91.5,947.9,91.2L947.9,91.2z"/>
</g>
<g class="st2">
	<path class="st0" d="M867.9,115c-0.8-0.4-1.3-1-1.5-1.9s-0.3-2.3-0.3-4.3s0.1-3.4,0.3-4.3s0.7-1.5,1.5-1.9s2.1-0.6,3.9-0.6
		s3.1,0.2,3.9,0.6s1.3,1,1.5,1.9c0.2,0.8,0.3,2.3,0.3,4.3s-0.1,3.4-0.3,4.3c-0.2,0.8-0.7,1.5-1.5,1.9s-2.1,0.6-3.9,0.6
		S868.7,115.4,867.9,115z M873.5,112.7c0.3-0.1,0.5-0.4,0.5-0.9c0.1-0.5,0.1-1.4,0.1-2.9s0-2.4-0.1-2.9s-0.3-0.8-0.5-0.9
		c-0.3-0.1-0.8-0.2-1.7-0.2s-1.4,0.1-1.7,0.2s-0.5,0.4-0.6,0.9s-0.1,1.5-0.1,2.9s0,2.4,0.1,2.9s0.3,0.8,0.6,0.9s0.8,0.2,1.7,0.2
		S873.2,112.8,873.5,112.7z"/>
	<path class="st0" d="M887.7,115.4l-4.5-7.5H883v7.5h-3.2v-13.1h3.4l4.2,6.8h0.1v-6.8h3.2v13.1H887.7z"/>
	<path class="st0" d="M893.5,115.4v-13.1h3.3v10.3h5.2v2.8L893.5,115.4z"/>
	<path class="st0" d="M903.8,115.4v-13.1h3.3v13.1H903.8z"/>
	<path class="st0" d="M917.5,115.4l-4.5-7.5h-0.1v7.5h-3.2v-13.1h3.4l4.2,6.8h0.1v-6.8h3.2v13.1H917.5z"/>
	<path class="st0" d="M923.4,115.4v-13.1h9.3v2.7h-6v2.5h5.1v2.7h-5.1v2.6h6v2.7L923.4,115.4z"/>
</g>
<g class="st2">
	<path class="st0" d="M868.5,19.4V8.3l-2.7,1.3V8.1l3.2-1.7h1.2v13.1H868.5z"/>
	<path class="st0" d="M880.1,19.4v-3h-6.9V15l5.1-8.7h1.8l-5.1,8.5h5.1l0.3-4.5h1.3v4.5h1.9v1.5h-1.9v3H880.1z"/>
	<path class="st0" d="M899.4,19.4l-6.9-10h-0.1v10h-1.6V6.3h1.7l6.8,9.8h0.1V6.3h1.6v13.1H899.4z"/>
	<path class="st0" d="M906,19c-0.7-0.3-1.2-0.9-1.4-1.8c-0.2-0.9-0.3-2.3-0.3-4.4s0.1-3.5,0.3-4.4c0.2-0.9,0.7-1.5,1.4-1.8
		s2-0.5,3.7-0.5c1.7,0,2.9,0.2,3.7,0.5s1.2,0.9,1.4,1.8c0.2,0.9,0.3,2.3,0.3,4.4s-0.1,3.5-0.3,4.4c-0.2,0.9-0.7,1.5-1.4,1.8
		c-0.7,0.3-2,0.5-3.7,0.5C907.9,19.6,906.7,19.4,906,19z M912.3,17.8c0.5-0.2,0.8-0.6,0.9-1.2c0.1-0.7,0.2-1.9,0.2-3.7
		c0-1.8-0.1-3-0.2-3.7c-0.1-0.7-0.4-1.1-0.9-1.2c-0.5-0.2-1.3-0.2-2.6-0.2s-2.2,0.1-2.6,0.2c-0.5,0.2-0.8,0.6-0.9,1.2
		c-0.1,0.7-0.2,1.9-0.2,3.7c0,1.8,0.1,3,0.2,3.7c0.1,0.7,0.4,1.1,0.9,1.2c0.5,0.2,1.3,0.2,2.6,0.2S911.8,17.9,912.3,17.8z"/>
	<path class="st0" d="M921.6,19.4l-4.7-13.1h1.7l4,11.1h0.1l4-11.1h1.7l-4.7,13.1H921.6z"/>
	<path class="st0" d="M936.3,17.9h7.3v1.5h-8.9v-1.6c0-1.1,0-1.9,0.1-2.4s0.3-0.9,0.6-1.2c0.3-0.3,0.8-0.6,1.5-0.9
		c1.4-0.6,2.5-1,3.5-1.4c0.5-0.2,0.8-0.4,1-0.5c0.2-0.2,0.4-0.4,0.5-0.6c0.1-0.2,0.1-0.6,0.1-1c0-0.6-0.1-1-0.3-1.3
		c-0.2-0.3-0.5-0.5-0.9-0.6c-0.4-0.1-1.1-0.1-2-0.1c-1,0-2.3,0.1-3.8,0.2V6.5c0.5-0.1,1.2-0.2,2-0.2s1.6-0.1,2.3-0.1
		c1,0,1.7,0.1,2.3,0.2c0.6,0.1,1.1,0.5,1.5,1c0.4,0.5,0.6,1.2,0.6,2.2c0,0.7-0.1,1.3-0.2,1.8s-0.4,0.8-0.7,1.1
		c-0.3,0.3-0.8,0.5-1.4,0.8l-3.9,1.6c-0.4,0.2-0.7,0.4-0.9,0.7c-0.1,0.2-0.1,0.4-0.2,0.6c0,0.2,0,0.5,0,0.9V17.9z"/>
	<path class="st0" d="M947.9,19c-0.7-0.3-1.1-0.9-1.3-1.8c-0.2-0.8-0.3-2.3-0.3-4.4s0.1-3.6,0.3-4.4c0.2-0.8,0.6-1.4,1.3-1.8
		c0.7-0.3,1.8-0.5,3.4-0.5s2.7,0.2,3.4,0.5c0.7,0.3,1.1,0.9,1.3,1.8c0.2,0.9,0.3,2.3,0.3,4.4c0,2.1-0.1,3.6-0.3,4.4
		c-0.2,0.8-0.6,1.4-1.3,1.8c-0.7,0.3-1.8,0.5-3.4,0.5S948.6,19.4,947.9,19z M953.7,17.8c0.4-0.2,0.7-0.6,0.8-1.2
		c0.1-0.6,0.2-1.9,0.2-3.7c0-1.8-0.1-3.1-0.2-3.7c-0.1-0.6-0.4-1-0.8-1.2c-0.4-0.2-1.2-0.3-2.3-0.3c-1.2,0-2,0.1-2.4,0.3
		s-0.7,0.6-0.8,1.2c-0.1,0.6-0.2,1.9-0.2,3.7c0,1.8,0.1,3.1,0.2,3.7c0.1,0.6,0.4,1,0.8,1.2c0.4,0.2,1.2,0.3,2.4,0.3
		C952.5,18,953.3,17.9,953.7,17.8z"/>
	<path class="st0" d="M960.6,17.9h7.3v1.5h-8.9v-1.6c0-1.1,0-1.9,0.1-2.4c0.1-0.5,0.3-0.9,0.6-1.2s0.8-0.6,1.5-0.9
		c1.4-0.6,2.5-1,3.5-1.4c0.5-0.2,0.8-0.4,1-0.5c0.2-0.2,0.4-0.4,0.5-0.6c0.1-0.2,0.1-0.6,0.1-1c0-0.6-0.1-1-0.3-1.3
		s-0.5-0.5-0.9-0.6c-0.4-0.1-1.1-0.1-2-0.1c-1,0-2.3,0.1-3.8,0.2V6.5c0.5-0.1,1.2-0.2,2-0.2s1.6-0.1,2.3-0.1c0.9,0,1.7,0.1,2.3,0.2
		c0.6,0.1,1.1,0.5,1.5,1c0.4,0.5,0.6,1.2,0.6,2.2c0,0.7-0.1,1.3-0.2,1.8c-0.2,0.5-0.4,0.8-0.7,1.1c-0.3,0.3-0.8,0.5-1.4,0.8
		l-3.9,1.6c-0.4,0.2-0.7,0.4-0.9,0.7c-0.1,0.2-0.1,0.4-0.2,0.6c0,0.2,0,0.5,0,0.9V17.9z"/>
	<path class="st0" d="M972.3,19c-0.7-0.3-1.1-0.9-1.3-1.8c-0.2-0.8-0.3-2.3-0.3-4.4s0.1-3.6,0.3-4.4c0.2-0.8,0.6-1.4,1.3-1.8
		c0.7-0.3,1.8-0.5,3.4-0.5s2.7,0.2,3.4,0.5c0.7,0.3,1.1,0.9,1.3,1.8c0.2,0.9,0.3,2.3,0.3,4.4c0,2.1-0.1,3.6-0.3,4.4
		c-0.2,0.8-0.6,1.4-1.3,1.8c-0.7,0.3-1.8,0.5-3.4,0.5S973,19.4,972.3,19z M978.1,17.8c0.4-0.2,0.7-0.6,0.8-1.2
		c0.1-0.6,0.2-1.9,0.2-3.7c0-1.8-0.1-3.1-0.2-3.7c-0.1-0.6-0.4-1-0.8-1.2c-0.4-0.2-1.2-0.3-2.3-0.3c-1.2,0-2,0.1-2.4,0.3
		s-0.7,0.6-0.8,1.2c-0.1,0.6-0.2,1.9-0.2,3.7c0,1.8,0.1,3.1,0.2,3.7c0.1,0.6,0.4,1,0.8,1.2c0.4,0.2,1.2,0.3,2.4,0.3
		C976.9,18,977.7,17.9,978.1,17.8z"/>
</g>
<g class="st2">
	<path class="st0" d="M868.5,43.6V32.5l-2.7,1.3v-1.6l3.2-1.7h1.2v13.1H868.5z"/>
	<path class="st0" d="M875.2,42.1h7.3v1.5h-8.9V42c0-1.1,0-1.9,0.1-2.4c0.1-0.5,0.3-0.9,0.6-1.2s0.8-0.6,1.5-0.9
		c1.4-0.6,2.5-1,3.5-1.4c0.5-0.2,0.8-0.4,1-0.5c0.2-0.2,0.4-0.4,0.5-0.6c0.1-0.2,0.1-0.6,0.1-1c0-0.6-0.1-1-0.3-1.3
		s-0.5-0.5-0.9-0.6c-0.4-0.1-1.1-0.1-2-0.1c-1,0-2.3,0.1-3.8,0.2v-1.4c0.5-0.1,1.2-0.2,2-0.2s1.6-0.1,2.3-0.1c0.9,0,1.7,0.1,2.3,0.2
		c0.6,0.1,1.1,0.5,1.5,1c0.4,0.5,0.6,1.2,0.6,2.2c0,0.7-0.1,1.3-0.2,1.8c-0.2,0.5-0.4,0.8-0.7,1.1c-0.3,0.3-0.8,0.5-1.4,0.8
		l-3.9,1.6c-0.4,0.2-0.7,0.4-0.9,0.7c-0.1,0.2-0.1,0.4-0.2,0.6c0,0.2,0,0.5,0,0.9V42.1z"/>
	<path class="st0" d="M885.1,35.8v-1.9h1.8v1.9H885.1z M885.1,43.6v-1.9h1.8v1.9H885.1z"/>
	<path class="st0" d="M891.1,43.2c-0.7-0.3-1.1-0.9-1.3-1.8c-0.2-0.8-0.3-2.3-0.3-4.4s0.1-3.6,0.3-4.4c0.2-0.8,0.6-1.4,1.3-1.8
		c0.7-0.3,1.8-0.5,3.4-0.5s2.7,0.2,3.4,0.5c0.7,0.3,1.1,0.9,1.3,1.8c0.2,0.9,0.3,2.3,0.3,4.4c0,2.1-0.1,3.6-0.3,4.4
		c-0.2,0.8-0.6,1.4-1.3,1.8c-0.7,0.3-1.8,0.5-3.4,0.5S891.7,43.6,891.1,43.2z M896.8,42c0.4-0.2,0.7-0.6,0.8-1.2
		c0.1-0.6,0.2-1.9,0.2-3.7c0-1.8-0.1-3.1-0.2-3.7c-0.1-0.6-0.4-1-0.8-1.2c-0.4-0.2-1.2-0.3-2.3-0.3c-1.2,0-2,0.1-2.4,0.3
		s-0.7,0.6-0.8,1.2c-0.1,0.6-0.2,1.9-0.2,3.7c0,1.8,0.1,3.1,0.2,3.7c0.1,0.6,0.4,1,0.8,1.2c0.4,0.2,1.2,0.3,2.4,0.3
		C895.6,42.2,896.4,42.1,896.8,42z"/>
	<path class="st0" d="M903.8,43.2c-0.7-0.3-1.1-0.9-1.3-1.8c-0.2-0.8-0.3-2.3-0.3-4.4s0.1-3.6,0.3-4.4c0.2-0.8,0.6-1.4,1.3-1.8
		c0.7-0.3,1.8-0.5,3.4-0.5s2.7,0.2,3.4,0.5c0.7,0.3,1.1,0.9,1.3,1.8c0.2,0.9,0.3,2.3,0.3,4.4c0,2.1-0.1,3.6-0.3,4.4
		c-0.2,0.8-0.6,1.4-1.3,1.8c-0.7,0.3-1.8,0.5-3.4,0.5S904.5,43.6,903.8,43.2z M909.6,42c0.4-0.2,0.7-0.6,0.8-1.2
		c0.1-0.6,0.2-1.9,0.2-3.7c0-1.8-0.1-3.1-0.2-3.7c-0.1-0.6-0.4-1-0.8-1.2c-0.4-0.2-1.2-0.3-2.3-0.3c-1.2,0-2,0.1-2.4,0.3
		s-0.7,0.6-0.8,1.2c-0.1,0.6-0.2,1.9-0.2,3.7c0,1.8,0.1,3.1,0.2,3.7c0.1,0.6,0.4,1,0.8,1.2c0.4,0.2,1.2,0.3,2.4,0.3
		C908.4,42.2,909.2,42.1,909.6,42z"/>
	<path class="st0" d="M924,43.6v-5.8h-6.9v5.8h-1.6V30.5h1.6v5.7h6.9v-5.7h1.6v13.1H924z"/>
	<path class="st0" d="M943.7,30.5v7.4c0,1.7-0.1,2.9-0.3,3.7c-0.2,0.8-0.7,1.3-1.3,1.7c-0.7,0.3-1.8,0.5-3.3,0.5
		c-1.5,0-2.6-0.2-3.3-0.5c-0.7-0.3-1.1-0.9-1.4-1.7c-0.2-0.8-0.3-2-0.3-3.7v-7.4h1.6v8c0,1.1,0.1,2,0.2,2.4s0.4,0.8,0.9,1
		c0.5,0.2,1.2,0.3,2.3,0.3c1.1,0,1.9-0.1,2.3-0.3c0.4-0.2,0.7-0.5,0.9-1c0.1-0.5,0.2-1.3,0.2-2.4v-8H943.7z"/>
	<path class="st0" d="M950.2,43.6V32.1H946v-1.6h9.9v1.6h-4.1v11.5H950.2z"/>
	<path class="st0" d="M964.9,43.7c-0.6,0-1.1,0.1-1.6,0.1c-1.6,0-2.7-0.2-3.4-0.5c-0.7-0.3-1.2-1-1.5-1.9S958,39,958,37.1
		c0-2,0.1-3.4,0.4-4.3s0.7-1.5,1.5-1.9s1.9-0.5,3.4-0.5c0.5,0,1.1,0,1.6,0.1c0.6,0.1,1,0.1,1.4,0.2v1.4c-1-0.1-1.8-0.2-2.6-0.2
		c-1.3,0-2.3,0.1-2.8,0.3c-0.5,0.2-0.9,0.6-1,1.3c-0.2,0.7-0.2,1.9-0.2,3.6s0.1,2.9,0.2,3.6c0.2,0.7,0.5,1.1,1,1.3
		c0.5,0.2,1.5,0.3,2.8,0.3c1,0,1.9-0.1,2.7-0.2v1.5C966,43.6,965.5,43.6,964.9,43.7z"/>
</g>
</svg>
