<?xml version="1.0" encoding="utf-8"?>
<!-- Generator: Adobe Illustrator 24.0.2, SVG Export Plug-In . SVG Version: 6.00 Build 0)  -->
<svg version="1.1" id="Livello_1" xmlns="http://www.w3.org/2000/svg" xmlns:xlink="http://www.w3.org/1999/xlink" x="0px" y="0px"
	 viewBox="0 0 697.8 392.2" style="enable-background:new 0 0 697.8 392.2;" xml:space="preserve">
<style type="text/css">
	.st0{fill:#1B21F4;}
</style>
<g>
	<path class="st0" d="M6.4,326.1h15.4v3.2H3.1v-3.3c0-2.3,0.1-4,0.3-5c0.2-1.1,0.6-1.9,1.2-2.6c0.6-0.7,1.7-1.3,3.2-2
		c2.9-1.2,5.3-2.2,7.3-3c1-0.4,1.7-0.8,2.2-1.1c0.5-0.4,0.8-0.8,1-1.3c0.2-0.5,0.3-1.2,0.3-2.1c0-1.3-0.2-2.2-0.6-2.8
		c-0.4-0.6-1-1-2-1.2c-0.9-0.2-2.3-0.3-4.3-0.3c-2.1,0-4.8,0.2-8,0.5v-3c1.1-0.2,2.5-0.4,4.2-0.5c1.7-0.1,3.3-0.2,4.8-0.2
		c2,0,3.6,0.2,4.9,0.5c1.3,0.3,2.3,1,3.1,2s1.2,2.6,1.2,4.6c0,1.6-0.2,2.8-0.5,3.8c-0.3,1-0.8,1.7-1.5,2.3c-0.7,0.6-1.7,1.1-2.9,1.7
		l-8.3,3.4c-0.9,0.3-1.5,0.8-1.8,1.4c-0.2,0.4-0.3,0.8-0.3,1.3c-0.1,0.5-0.1,1.1-0.1,1.9V326.1z"/>
	<path class="st0" d="M43,329.5c-1.5-0.1-3-0.3-4.3-0.5v-3c3.1,0.3,5.5,0.5,7.4,0.5c2.6,0,4.4-0.2,5.6-0.7c1.1-0.5,1.9-1.4,2.2-2.8
		c0.4-1.3,0.5-3.6,0.5-6.6h-0.2c-0.5,0.6-1.3,1.1-2.5,1.4c-1.1,0.4-2.9,0.6-5.2,0.6c-2.4,0-4.3-0.2-5.6-0.6
		c-1.3-0.4-2.2-1.1-2.9-2.2c-0.6-1.1-0.9-2.7-0.9-5c0-2.5,0.3-4.3,0.8-5.6c0.5-1.3,1.5-2.1,2.9-2.7s3.5-0.8,6.3-0.8
		c2.1,0,3.8,0.1,5.1,0.3c1.3,0.2,2.3,0.6,3.1,1.2c0.8,0.6,1.4,1.5,1.8,2.8c0.3,1,0.6,2.2,0.7,3.7c0.1,1.5,0.2,3.4,0.2,5.8
		c0,2.5-0.1,4.6-0.3,6.2c-0.2,1.6-0.5,2.9-0.9,4c-0.7,1.6-1.8,2.7-3.3,3.3c-1.5,0.6-3.7,0.9-6.6,0.9C45.8,329.7,44.5,329.6,43,329.5
		z M52,314.8c1-0.3,1.6-0.7,1.9-1.3c0.3-0.6,0.4-1.5,0.4-2.6c0-1.9-0.2-3.3-0.6-4.1c-0.4-0.9-1.1-1.4-2-1.7
		c-0.9-0.3-2.4-0.4-4.3-0.4c-2,0-3.5,0.1-4.4,0.3c-0.9,0.2-1.6,0.7-1.9,1.4c-0.4,0.7-0.6,1.8-0.6,3.4c0,1.7,0.2,2.9,0.5,3.6
		c0.3,0.7,1,1.2,1.9,1.4c0.9,0.2,2.4,0.3,4.5,0.3C49.5,315.2,51,315,52,314.8z"/>
	<path class="st0" d="M93.3,322.4l1.5-3.9H73.2v-2.7h21.6l-1.5-3.9l10.8,5.3L93.3,322.4z"/>
	<path class="st0" d="M122.7,329.5c-1.5-0.1-2.9-0.3-4-0.5v-3c3.1,0.3,5.8,0.5,7.9,0.5c1.8,0,3.2-0.1,4.2-0.3c1-0.2,1.7-0.6,2.3-1.3
		c0.5-0.7,0.8-1.7,0.8-3c0-1.8-0.4-3-1.2-3.7c-0.8-0.7-2.2-1.1-4.1-1.1h-5.2v-3.2h5.2c1.6,0,2.8-0.3,3.7-1c0.9-0.6,1.3-1.8,1.3-3.6
		c0-1.4-0.2-2.4-0.7-3c-0.5-0.6-1.2-1.1-2.2-1.3c-1-0.2-2.5-0.3-4.5-0.3c-1.1,0-2.3,0.1-3.7,0.2c-1.4,0.1-2.6,0.2-3.7,0.4v-3
		c1.1-0.2,2.4-0.4,3.9-0.5c1.5-0.1,2.9-0.2,4.2-0.2c2.6,0,4.6,0.3,6.1,0.8c1.5,0.5,2.5,1.3,3.2,2.4c0.6,1.1,0.9,2.4,0.9,4.1
		c0,1.9-0.4,3.4-1.2,4.4c-0.8,1-2,1.7-3.5,2.1v0.2c1.7,0.3,2.9,0.9,3.7,1.9c0.8,1,1.3,2.5,1.3,4.7c0,1.7-0.3,3.1-0.8,4.2
		c-0.6,1.1-1.6,1.9-3.1,2.6c-1.5,0.6-3.7,0.9-6.5,0.9C125.6,329.7,124.3,329.6,122.7,329.5z"/>
	<path class="st0" d="M157.6,329.4v-23.3l-5.7,2.7v-3.3l6.7-3.6h2.4v27.5H157.6z"/>
	<path class="st0" d="M223.8,329.4v-21.6h-0.2l-9.4,21.6h-2.5l-9.4-21.6h-0.2v21.6h-3.2v-27.5h4.6l9.4,21.4h0.2l9.4-21.4h4.6v27.5
		H223.8z"/>
	<path class="st0" d="M263.8,329.4L261,322h-12.4l-2.8,7.3h-3.5l10.4-27.5h4.3l10.4,27.5H263.8z M254.9,305.6h-0.2l-5,13.2h10.3
		L254.9,305.6z"/>
	<path class="st0" d="M286.1,329.4V319l-10-17.1h3.7l8,13.4h0.3l7.9-13.4h3.6l-10,17.1v10.4H286.1z"/>
	<path class="st0" d="M335,326.1h15.4v3.2h-18.8v-3.3c0-2.3,0.1-4,0.3-5c0.2-1.1,0.6-1.9,1.2-2.6c0.6-0.7,1.7-1.3,3.2-2
		c2.9-1.2,5.3-2.2,7.3-3c1-0.4,1.7-0.8,2.2-1.1c0.5-0.4,0.8-0.8,1-1.3c0.2-0.5,0.3-1.2,0.3-2.1c0-1.3-0.2-2.2-0.6-2.8
		c-0.4-0.6-1-1-2-1.2c-0.9-0.2-2.3-0.3-4.3-0.3c-2.1,0-4.8,0.2-8,0.5v-3c1.1-0.2,2.5-0.4,4.2-0.5c1.7-0.1,3.3-0.2,4.8-0.2
		c2,0,3.6,0.2,4.9,0.5c1.3,0.3,2.3,1,3.1,2c0.8,1,1.2,2.6,1.2,4.6c0,1.6-0.2,2.8-0.5,3.8s-0.8,1.7-1.5,2.3c-0.7,0.6-1.7,1.1-2.9,1.7
		l-8.3,3.4c-0.9,0.3-1.5,0.8-1.8,1.4c-0.2,0.4-0.3,0.8-0.3,1.3c-0.1,0.5-0.1,1.1-0.1,1.9V326.1z"/>
	<path class="st0" d="M369.6,328.6c-1.4-0.7-2.3-2-2.6-3.7c-0.4-1.8-0.5-4.9-0.5-9.3c0-4.4,0.2-7.5,0.5-9.3c0.4-1.8,1.2-3,2.6-3.7
		c1.4-0.7,3.8-1.1,7.2-1.1c3.4,0,5.8,0.4,7.2,1.1c1.4,0.7,2.3,2,2.6,3.8c0.4,1.8,0.5,4.9,0.5,9.3c0,4.4-0.2,7.5-0.5,9.3
		c-0.4,1.8-1.2,3-2.6,3.7c-1.4,0.7-3.8,1.1-7.2,1.1C373.4,329.7,371,329.3,369.6,328.6z M381.7,325.9c0.8-0.4,1.4-1.2,1.6-2.5
		s0.4-3.9,0.4-7.8c0-3.9-0.1-6.5-0.4-7.8c-0.2-1.3-0.8-2.2-1.6-2.5c-0.8-0.4-2.5-0.5-4.9-0.5c-2.5,0-4.1,0.2-5,0.5
		c-0.9,0.4-1.4,1.2-1.6,2.5c-0.2,1.3-0.4,3.9-0.4,7.8c0,3.9,0.1,6.5,0.4,7.8s0.8,2.2,1.6,2.5c0.9,0.4,2.5,0.5,5,0.5
		C379.2,326.5,380.8,326.3,381.7,325.9z"/>
	<path class="st0" d="M406.3,326.1h15.4v3.2H403v-3.3c0-2.3,0.1-4,0.3-5c0.2-1.1,0.6-1.9,1.2-2.6c0.6-0.7,1.7-1.3,3.2-2
		c2.9-1.2,5.3-2.2,7.3-3c1-0.4,1.7-0.8,2.2-1.1c0.5-0.4,0.8-0.8,1-1.3c0.2-0.5,0.3-1.2,0.3-2.1c0-1.3-0.2-2.2-0.6-2.8
		c-0.4-0.6-1-1-2-1.2c-0.9-0.2-2.3-0.3-4.3-0.3c-2.1,0-4.8,0.2-8,0.5v-3c1.1-0.2,2.5-0.4,4.2-0.5c1.7-0.1,3.3-0.2,4.8-0.2
		c2,0,3.6,0.2,4.9,0.5c1.3,0.3,2.3,1,3.1,2c0.8,1,1.2,2.6,1.2,4.6c0,1.6-0.2,2.8-0.5,3.8s-0.8,1.7-1.5,2.3c-0.7,0.6-1.7,1.1-2.9,1.7
		l-8.3,3.4c-0.9,0.3-1.5,0.8-1.8,1.4c-0.2,0.4-0.3,0.8-0.3,1.3c-0.1,0.5-0.1,1.1-0.1,1.9V326.1z"/>
	<path class="st0" d="M440.8,328.6c-1.4-0.7-2.3-2-2.6-3.7c-0.4-1.8-0.5-4.9-0.5-9.3c0-4.4,0.2-7.5,0.5-9.3c0.4-1.8,1.2-3,2.6-3.7
		c1.4-0.7,3.8-1.1,7.2-1.1c3.4,0,5.8,0.4,7.2,1.1c1.4,0.7,2.3,2,2.6,3.8c0.4,1.8,0.5,4.9,0.5,9.3c0,4.4-0.2,7.5-0.5,9.3
		c-0.4,1.8-1.2,3-2.6,3.7c-1.4,0.7-3.8,1.1-7.2,1.1C444.6,329.7,442.2,329.3,440.8,328.6z M453,325.9c0.8-0.4,1.4-1.2,1.6-2.5
		s0.4-3.9,0.4-7.8c0-3.9-0.1-6.5-0.4-7.8c-0.2-1.3-0.8-2.2-1.6-2.5c-0.8-0.4-2.5-0.5-4.9-0.5c-2.5,0-4.1,0.2-5,0.5
		c-0.9,0.4-1.4,1.2-1.6,2.5c-0.2,1.3-0.4,3.9-0.4,7.8c0,3.9,0.1,6.5,0.4,7.8s0.8,2.2,1.6,2.5c0.9,0.4,2.5,0.5,5,0.5
		C450.5,326.5,452.1,326.3,453,325.9z"/>
</g>
<g>
	<path class="st0" d="M4.3,377.3v-27.5h3.4V374h12.8v3.3H4.3z"/>
	<path class="st0" d="M35.8,377.3v-27.5h3.4v27.5H35.8z"/>
	<path class="st0" d="M61.5,377.5c-1.8-0.1-3.4-0.2-4.8-0.4v-3.2c3.5,0.3,6.4,0.5,8.7,0.5c1.4,0,2.6-0.1,3.4-0.2s1.6-0.3,2.1-0.7
		c0.5-0.3,0.9-0.8,1-1.4c0.2-0.6,0.2-1.5,0.2-2.5c0-1.3-0.1-2.1-0.2-2.7c-0.1-0.5-0.4-0.9-0.9-1.1c-0.5-0.2-1.3-0.4-2.5-0.5
		l-6.8-0.8c-1.7-0.2-2.9-0.6-3.7-1.2c-0.8-0.6-1.4-1.4-1.7-2.4c-0.3-1-0.4-2.2-0.4-3.8c0-2.2,0.4-3.8,1.1-5c0.8-1.1,1.8-1.9,3.2-2.2
		c1.4-0.4,3.2-0.6,5.5-0.6c1.5,0,3.1,0.1,4.7,0.2c1.6,0.1,2.9,0.3,3.8,0.5v3c-1-0.2-2.3-0.3-3.8-0.4c-1.5-0.1-2.9-0.1-4.2-0.1
		c-1.5,0-2.7,0.1-3.6,0.2c-0.9,0.1-1.6,0.4-2.1,0.7c-0.6,0.3-0.9,0.7-1.1,1.3c-0.2,0.5-0.2,1.3-0.2,2.3c0,1.1,0.1,1.9,0.2,2.4
		c0.2,0.5,0.5,0.9,0.9,1.1c0.5,0.2,1.2,0.4,2.2,0.5l6.7,0.8c1.6,0.2,2.8,0.4,3.7,0.8c0.9,0.4,1.5,1.1,1.9,2.2c0.4,1,0.6,2.5,0.6,4.6
		c0,2.4-0.4,4.2-1.1,5.4s-1.7,1.9-3,2.3c-1.3,0.3-3,0.5-5.2,0.5C65,377.6,63.3,377.6,61.5,377.5z"/>
	<path class="st0" d="M92.4,349.8h12.8c2.6,0,4.5,0.6,5.6,1.8c1.1,1.2,1.7,2.9,1.7,5.2c0,1.8-0.4,3.3-1.1,4.4
		c-0.7,1.1-1.9,1.8-3.6,2.1v0.2c1.9,0.3,3.2,1.1,3.9,2.2c0.7,1.1,1.1,2.6,1.1,4.5c0,2.2-0.6,4-1.7,5.3c-1.1,1.3-3.1,1.9-6.1,1.9
		H92.4V349.8z M107.9,360.7c0.8-0.7,1.2-1.8,1.2-3.3c0-1.1-0.1-2-0.4-2.6c-0.3-0.6-0.8-1.1-1.5-1.4c-0.7-0.3-1.7-0.4-3.1-0.4h-8.2
		v8.8h8.2C105.8,361.8,107.1,361.4,107.9,360.7z M107.4,373.7c0.7-0.3,1.3-0.8,1.6-1.4c0.3-0.7,0.5-1.6,0.5-2.7
		c0-1.7-0.4-2.8-1.2-3.5s-2.1-1-4-1h-8.4v9.1h8.4C105.6,374.1,106.6,374,107.4,373.7z"/>
	<path class="st0" d="M132.3,376.6c-1.5-0.7-2.5-2-2.9-3.8c-0.4-1.8-0.6-4.9-0.6-9.2s0.2-7.4,0.6-9.2c0.4-1.8,1.4-3.1,2.9-3.8
		c1.5-0.7,4.1-1.1,7.8-1.1c3.6,0,6.2,0.4,7.7,1.1c1.5,0.7,2.5,2,2.9,3.8c0.4,1.8,0.6,4.9,0.6,9.2s-0.2,7.4-0.6,9.2
		c-0.4,1.8-1.4,3.1-2.9,3.8c-1.5,0.7-4.1,1.1-7.7,1.1C136.4,377.6,133.8,377.3,132.3,376.6z M145.6,373.9c1-0.3,1.6-1.2,1.9-2.6
		s0.4-4,0.4-7.8c0-3.8-0.1-6.4-0.4-7.8c-0.3-1.4-0.9-2.3-1.9-2.6s-2.8-0.5-5.5-0.5c-2.7,0-4.6,0.2-5.5,0.5c-1,0.3-1.6,1.2-1.9,2.6
		c-0.3,1.4-0.4,4-0.4,7.8c0,3.8,0.1,6.4,0.4,7.8c0.3,1.4,0.9,2.3,1.9,2.6c1,0.3,2.8,0.5,5.5,0.5
		C142.8,374.4,144.6,374.3,145.6,373.9z"/>
	<path class="st0" d="M186.4,377.3l-14.5-21h-0.2v21h-3.3v-27.5h3.5l14.3,20.6h0.2v-20.6h3.3v27.5H186.4z"/>
	<path class="st0" d="M234.6,379.5l-11.7-31.9h3l11.6,31.9H234.6z"/>
	<path class="st0" d="M270.9,349.8h12.1c2.2,0,3.9,0.4,5,1.1c1.1,0.7,1.9,1.7,2.3,2.9c0.4,1.2,0.6,2.8,0.6,4.8
		c0,1.9-0.2,3.4-0.6,4.7c-0.4,1.2-1.1,2.2-2.3,3c-1.2,0.7-2.9,1.1-5.1,1.1h-8.6v10h-3.4V349.8z M281.7,364.1c1.7,0,3-0.2,3.8-0.5
		c0.8-0.4,1.3-0.9,1.6-1.7c0.2-0.7,0.4-1.9,0.4-3.4s-0.1-2.6-0.3-3.4c-0.2-0.7-0.7-1.3-1.5-1.7c-0.8-0.4-2-0.5-3.8-0.5h-7.5v11.1
		H281.7z"/>
	<path class="st0" d="M309.5,376.6c-1.5-0.7-2.5-2-2.9-3.8c-0.4-1.8-0.6-4.9-0.6-9.2s0.2-7.4,0.6-9.2c0.4-1.8,1.4-3.1,2.9-3.8
		c1.5-0.7,4.1-1.1,7.8-1.1c3.6,0,6.2,0.4,7.7,1.1c1.5,0.7,2.5,2,2.9,3.8c0.4,1.8,0.6,4.9,0.6,9.2s-0.2,7.4-0.6,9.2
		c-0.4,1.8-1.4,3.1-2.9,3.8c-1.5,0.7-4.1,1.1-7.7,1.1C313.7,377.6,311.1,377.3,309.5,376.6z M322.8,373.9c1-0.3,1.6-1.2,1.9-2.6
		c0.3-1.4,0.4-4,0.4-7.8c0-3.8-0.1-6.4-0.4-7.8c-0.3-1.4-0.9-2.3-1.9-2.6s-2.8-0.5-5.5-0.5c-2.7,0-4.6,0.2-5.5,0.5
		c-1,0.3-1.6,1.2-1.9,2.6c-0.3,1.4-0.4,4-0.4,7.8c0,3.8,0.1,6.4,0.4,7.8c0.3,1.4,0.9,2.3,1.9,2.6c1,0.3,2.8,0.5,5.5,0.5
		C320,374.4,321.9,374.3,322.8,373.9z"/>
	<path class="st0" d="M362.7,377.3l-4.3-10.8h-0.7h-8.6v10.8h-3.4v-27.5h12.6c2.2,0,3.8,0.3,5,1c1.1,0.7,1.9,1.6,2.2,2.8
		c0.3,1.2,0.5,2.7,0.5,4.5c0,1.9-0.3,3.5-0.8,4.9c-0.6,1.4-1.7,2.4-3.4,2.9l4.7,11.4H362.7z M360.6,362.8c0.8-0.4,1.3-0.9,1.6-1.6
		s0.3-1.7,0.3-3c0-1.4-0.1-2.4-0.3-3.1c-0.2-0.7-0.7-1.2-1.5-1.6c-0.8-0.3-2-0.5-3.6-0.5h-8v10.3h7.8
		C358.6,363.3,359.8,363.1,360.6,362.8z"/>
	<path class="st0" d="M388.9,377.3v-24.2h-8.7v-3.3H401v3.3h-8.7v24.2H388.9z"/>
	<path class="st0" d="M436.9,349.8v15.5c0,3.6-0.2,6.2-0.7,7.9c-0.5,1.7-1.4,2.8-2.8,3.5c-1.4,0.7-3.8,1-7,1s-5.5-0.3-7-1
		c-1.4-0.7-2.4-1.8-2.9-3.5s-0.7-4.3-0.7-7.8v-15.5h3.4v16.8c0,2.4,0.1,4.1,0.4,5.1c0.3,1,0.9,1.7,1.8,2.1c1,0.4,2.6,0.6,4.9,0.6
		c2.3,0,3.9-0.2,4.9-0.6c0.9-0.4,1.5-1.1,1.8-2.1c0.3-1,0.4-2.7,0.4-5.1v-16.8H436.9z"/>
	<path class="st0" d="M464.6,365.6v-3.2h9.5v14.4c-1.3,0.2-2.8,0.4-4.4,0.6c-1.6,0.1-3.1,0.2-4.3,0.2c-3.4,0-5.8-0.4-7.5-1.1
		s-2.7-2.1-3.3-4c-0.6-1.9-0.9-4.9-0.9-9c0-4,0.3-7,0.9-9c0.6-1.9,1.7-3.3,3.3-4s4.1-1.1,7.4-1.1c1.3,0,2.8,0.1,4.4,0.2
		c1.6,0.2,3,0.3,4.3,0.6v3c-3-0.4-5.4-0.6-7-0.6c-3.2,0-5.4,0.2-6.6,0.5c-1.2,0.3-2.1,1.3-2.6,2.7c-0.5,1.5-0.7,4-0.7,7.6
		c0,3.4,0.2,5.8,0.6,7.2c0.4,1.5,1.1,2.5,2.2,3c1.1,0.5,3,0.8,5.5,0.8c0.8,0,1.7,0,2.8-0.1c1.1-0.1,1.9-0.1,2.6-0.2v-8.6H464.6z"/>
	<path class="st0" d="M510.3,377.3l-2.8-7.3h-12.4l-2.8,7.3h-3.5l10.4-27.5h4.3l10.4,27.5H510.3z M501.4,353.5h-0.2l-5,13.2h10.3
		L501.4,353.5z"/>
	<path class="st0" d="M529,377.3v-27.5h3.4V374h12.8v3.3H529z"/>
</g>
<path class="st0" d="M0.6,27.5c0-5,1.2-9.6,3.7-13.8c2.5-4.2,5.8-7.5,10-10C18.5,1.2,23.1,0,28.1,0c5,0,9.6,1.2,13.8,3.7
	c4.2,2.5,7.6,5.8,10,10c2.5,4.2,3.7,8.8,3.7,13.8V42c0,5-1.2,9.6-3.7,13.8c-2.5,4.2-5.8,7.5-10,10c-4.2,2.5-8.8,3.7-13.8,3.7
	c-5,0-9.6-1.2-13.8-3.7c-4.2-2.5-7.5-5.8-10-10C1.9,51.6,0.6,47,0.6,42V27.5z"/>
<path class="st0" d="M83.1,68V1.4H111c4.7,0,8.7,0.9,12.1,2.6c3.9,2,7,4.8,9.3,8.5c2.3,3.7,3.4,7.7,3.4,12.1c0,4.4-1.1,8.5-3.4,12.2
	c-2.3,3.7-5.3,6.5-9.2,8.5c-3.3,1.7-7.4,2.6-12.2,2.6h-10.4V68H83.1z"/>
<path class="st0" d="M165.4,1.4h48.5v16.8h-31.1v8.4h25.8v16h-25.8v8.5h31.1V68h-48.5V1.4z"/>
<path class="st0" d="M244.2,68V1.3h3.7l46.5,45.3V1.3h3.5V68H244.2z"/>
<path class="st0" d="M407.8,91.1h48.5v16.8h-31.1v8.4h25.8v16h-25.8v8.5h31.1v16.8h-48.5V91.1z"/>
<path class="st0" d="M7.4,152.8c-5-4.4-7.5-10.9-7.4-19.7h15.6c-0.1,3.6,1,6.4,3.3,8.3c2.2,1.9,5.4,2.9,9.4,2.9
	c3.3,0,5.9-0.5,7.8-1.6c1.9-1.1,2.9-2.7,2.9-5c0-1.8-1-3.2-2.9-4c-1.9-0.8-3.9-1.4-5.8-1.8c-1.9-0.4-3.1-0.6-3.5-0.6
	c-4.9-1-9.2-2.1-12.7-3.5c-3.6-1.4-6.6-3.5-9-6.3c-2.4-2.8-3.6-6.5-3.6-11.1c0-4.6,1.2-8.5,3.6-11.7c2.4-3.2,5.7-5.6,9.7-7.2
	c4.1-1.6,8.5-2.4,13.3-2.4c5.8,0,10.8,1.1,15.1,3.3c4.2,2.2,7.6,5.5,10,9.9c1.2,2.1,1.9,4.1,2.2,6.1c0.3,1.9,0.4,3.8,0.4,5.7H40
	c0-3.4-0.9-6-2.8-7.6c-1.9-1.6-4.7-2.4-8.6-2.4c-3.1,0-5.6,0.5-7.3,1.6c-1.7,1.1-2.6,2.6-2.6,4.4c0,2,1.1,3.5,3.4,4.5
	c2.3,1,5.2,1.8,8.7,2.6c5.7,1.1,10.2,2.2,13.4,3.3c3.2,1.1,6,2.9,8.4,5.6c2.4,2.7,3.5,6.4,3.5,11.3c0,4.6-1.3,8.6-3.8,11.9
	c-2.6,3.3-5.9,5.9-10.1,7.6c-4.2,1.8-8.7,2.6-13.5,2.6C19.6,159.4,12.4,157.2,7.4,152.8z"/>
<path class="st0" d="M85.4,103.1c2.5-4.3,5.9-7.7,10.1-10.1c4.2-2.5,8.9-3.7,13.9-3.7c5,0,9.7,1.2,13.9,3.7
	c4.2,2.5,7.6,5.9,10.1,10.1c2.5,4.3,3.7,8.9,3.7,13.9v14.7c0,5-1.2,9.6-3.7,13.9c-2.5,4.3-5.9,7.7-10.1,10.1
	c-4.2,2.5-8.9,3.7-13.9,3.7c-5,0-9.7-1.2-13.9-3.7c-4.2-2.5-7.6-5.9-10.1-10.1c-2.5-4.3-3.7-8.9-3.7-13.9V117
	C81.7,112,82.9,107.4,85.4,103.1z M102,139.6c1.9,2.2,4.4,3.3,7.5,3.3c3,0,5.5-1.1,7.4-3.3c1.9-2.2,2.9-4.8,2.9-7.8v-14.8
	c0-3.1-1-5.7-2.9-7.8c-1.9-2.1-4.4-3.2-7.4-3.2c-3.1,0-5.6,1.1-7.5,3.2c-1.9,2.1-2.9,4.7-2.9,7.8v14.8
	C99.1,134.8,100.1,137.4,102,139.6z"/>
<path class="st0" d="M176.2,155.5c-4.1-2.4-7.4-5.7-9.8-9.8c-2.4-4.1-3.6-8.6-3.6-13.4V91.1h53.8v41.2c0,4.8-1.2,9.3-3.6,13.4
	s-5.7,7.4-9.8,9.8c-4.1,2.4-8.6,3.6-13.4,3.6C184.8,159.1,180.4,157.9,176.2,155.5z"/>
<path class="st0" d="M245.5,91.1h25.9c5.6,0,10.1,1,13.6,3c3.4,1.9,6.1,4.5,8,7.8c1.9,3.3,2.9,7,2.9,11c0,5-1.5,9.4-4.6,13.4
	c-3.1,3.9-6.9,6.5-11.6,7.8l16.9,23.6h-51.2V91.1z"/>
<path class="st0" d="M379.1,132.5c0.1,8.4-2.3,14.9-7.2,19.6c-4.8,4.7-11.5,7-20,7c-5,0-9.7-1.1-13.9-3.4c-4.2-2.3-7.6-5.6-10.1-9.8
	c-2.5-4.2-3.7-9.1-3.7-14.5v-14c0-5.4,1.2-10.2,3.6-14.5c2.4-4.2,5.7-7.5,9.9-9.8c4.2-2.3,8.9-3.5,14-3.5c8.5,0,15.1,2.3,20,6.9
	c4.8,4.6,7.3,11.1,7.3,19.6h-17.2c-0.1-3.3-0.9-5.8-2.6-7.6c-1.7-1.8-4.2-2.7-7.4-2.7c-2.9,0-5.4,0.9-7.3,2.8
	c-1.9,1.9-2.9,4.5-2.9,7.8v15.6c0,3.4,1,6,3,7.9c2,1.9,4.5,2.8,7.4,2.8c6.7,0,10-3.4,10-10.3H379.1z"/>
<g>
	<path class="st0" d="M574.7,238.2c2.1,3.6,5,6.4,8.6,8.5c3.6,2.1,7.5,3.2,11.7,3.2c4.3,0,8.3-0.9,11.8-2.6c3.5-1.7,6.3-4.1,8.3-7.2
		s3-6.5,3.1-10.3h3.4c0,4.4-1.2,8.4-3.5,12c-2.3,3.6-5.5,6.4-9.6,8.5c-4.1,2.1-8.6,3.1-13.5,3.1c-4.8,0-9.3-1.2-13.5-3.6
		c-4.1-2.4-7.4-5.7-9.9-9.8c-2.4-4.1-3.6-8.6-3.6-13.4v-15.7c0-4.8,1.2-9.3,3.6-13.4c2.4-4.1,5.6-7.4,9.8-9.8
		c4.1-2.4,8.6-3.6,13.4-3.6c4.9,0,9.4,1,13.4,3.1c4.1,2.1,7.3,4.9,9.6,8.5c2.4,3.6,3.5,7.6,3.5,12H618c-0.1-3.8-1.1-7.3-3.2-10.3
		c-2-3.1-4.8-5.5-8.3-7.2c-3.5-1.7-7.4-2.6-11.7-2.6c-4.2,0-8.1,1.1-11.7,3.2s-6.4,4.9-8.5,8.5c-2.1,3.6-3.2,7.5-3.2,11.7v15.7
		C571.5,230.7,572.6,234.6,574.7,238.2z"/>
	<path class="st0" d="M650.9,185.4h46.9v3.5h-43.4v27h37.7v3.5h-37.7v29h43.4v3.5h-46.9V185.4z"/>
	<path class="st0" d="M51.5,252H0.3v-66.6h25.9c5.6,0,10.1,1,13.6,3c3.4,1.9,6.1,4.5,8,7.8c1.9,3.3,2.9,7,2.9,11
		c0,5-1.5,9.4-4.6,13.4c-3.1,3.9-6.9,6.5-11.6,7.8L51.5,252z M3.9,191.2v34.4h24.6L3.9,191.2z M3.9,248.4h41l-14-19.4l-3,0.1h-24
		V248.4z M6.3,188.9l26,36.4c4.3-0.9,7.8-3,10.6-6.4c2.8-3.4,4.2-7.3,4.2-11.7c0-3.5-0.9-6.7-2.6-9.6c-1.7-2.9-4.1-5.1-7.3-6.6
		c-2.8-1.4-6.5-2.1-11-2.1H6.3z"/>
	<path class="st0" d="M258.6,216.5c-3.4-1.3-6.1-3.1-8-5.4c-1.9-2.3-2.9-5.2-2.9-8.8c0-3.7,1-7,2.9-9.8c1.9-2.8,4.7-5,8.2-6.5
		c3.5-1.5,7.6-2.3,12.3-2.3c4.5,0,8.6,0.9,12.3,2.8c3.7,1.9,6.7,4.5,8.9,7.9c2.2,3.4,3.3,7.2,3.3,11.6H292c0-3.8-0.9-7.1-2.8-10
		c-1.9-2.9-4.4-5.1-7.6-6.7c-3.2-1.6-6.7-2.3-10.6-2.3c-3.4,0-6.7,0.5-9.7,1.6c-3,1.1-5.4,2.7-7.3,5c-1.9,2.2-2.8,5-2.8,8.4
		c0,3.1,0.9,5.5,2.7,7.3c1.8,1.8,4.1,3.2,7,4.2c2.9,1,6.9,2,12.1,3.1c5.2,1.1,9.3,2.1,12.2,3.1c2.9,1,5.4,2.6,7.4,4.9s3,5.5,3,9.7
		c0,4.1-1.1,7.6-3.3,10.5c-2.2,2.8-5.1,5-8.8,6.4c-3.6,1.4-7.6,2.1-11.9,2.1c-5.3,0-10-1-14-3c-4-2-7.1-4.8-9.2-8.4
		c-2.1-3.6-3.2-7.7-3.2-12.4h3.5c0,4.1,0.9,7.7,2.7,10.7s4.5,5.4,7.9,7.1c3.4,1.7,7.5,2.5,12.3,2.5c5.9,0,10.7-1.4,14.6-4.2
		c3.9-2.8,5.8-6.6,5.8-11.5c0-3.3-0.8-5.9-2.5-7.7c-1.7-1.8-3.7-3.1-6.3-3.9c-2.5-0.8-6.3-1.7-11.3-2.7
		C266.4,219,262,217.8,258.6,216.5z"/>
	<path class="st0" d="M365.1,187.6c4.2,2.5,7.5,5.8,10,10c2.5,4.2,3.7,8.8,3.7,13.8v14.5c0,5-1.2,9.6-3.7,13.8
		c-2.5,4.2-5.8,7.5-10,10c-4.2,2.5-8.8,3.7-13.8,3.7c-5,0-9.6-1.2-13.8-3.7c-4.2-2.5-7.5-5.8-10-10c-2.5-4.2-3.7-8.8-3.7-13.8v-14.5
		c0-5,1.2-9.6,3.7-13.8c2.5-4.2,5.8-7.5,10-10c4.2-2.5,8.8-3.7,13.8-3.7C356.3,183.9,360.8,185.2,365.1,187.6z M330.6,238
		c2.1,3.7,5,6.6,8.7,8.7c3.7,2.1,7.7,3.2,12,3.2c4.3,0,8.3-1.1,12-3.2c3.7-2.1,6.6-5,8.7-8.7c2.1-3.7,3.2-7.7,3.2-12v-14.5
		c0-4.3-1.1-8.3-3.2-12c-2.1-3.7-5-6.6-8.7-8.7c-3.7-2.1-7.7-3.2-12-3.2c-4.3,0-8.3,1.1-12,3.2c-3.7,2.1-6.6,5-8.7,8.7
		c-2.1,3.7-3.2,7.7-3.2,12v14.5C327.3,230.3,328.4,234.3,330.6,238z"/>
	<path class="st0" d="M407.2,185.4h53.9v41.2c0,4.9-1.2,9.3-3.6,13.4c-2.4,4.1-5.7,7.4-9.9,9.8c-4.1,2.4-8.6,3.6-13.5,3.6
		c-4.8,0-9.3-1.2-13.4-3.6c-4.1-2.4-7.4-5.7-9.8-9.8c-2.4-4.1-3.6-8.6-3.6-13.4V185.4z M410.8,188.9v37.6c0,4.2,1.1,8.1,3.2,11.7
		c2.1,3.6,4.9,6.4,8.5,8.5s7.5,3.2,11.7,3.2s8.1-1.1,11.7-3.2c3.6-2.1,6.4-4.9,8.5-8.5c2.1-3.6,3.2-7.5,3.2-11.7v-37.6H410.8z"/>
	<path class="st0" d="M540.1,252h-51.2v-66.6h25.9c5.6,0,10.1,1,13.6,3c3.4,1.9,6.1,4.5,8,7.8c1.9,3.3,2.9,7,2.9,11
		c0,5-1.5,9.4-4.6,13.4c-3.1,3.9-6.9,6.5-11.6,7.8L540.1,252z M492.4,191.2v34.4H517L492.4,191.2z M492.4,248.4h41l-14-19.4l-3,0.1
		h-24V248.4z M494.9,188.9l26,36.4c4.3-0.9,7.8-3,10.6-6.4c2.8-3.4,4.2-7.3,4.2-11.7c0-3.5-0.9-6.7-2.6-9.6s-4.1-5.1-7.3-6.6
		c-2.8-1.4-6.5-2.1-11-2.1H494.9z"/>
	<path class="st0" d="M79.2,185.4h46.9v3.5H82.7v27h37.7v3.5H82.7v29h43.4v3.5H79.2V185.4z"/>
</g>
<path class="st0" d="M198,225.9c0,6.5-5.3,11.8-11.8,11.8s-11.8-5.3-11.8-11.8c0-8.6,11.8-23.2,11.8-23.2S198,216.5,198,225.9z"/>
</svg>
