<?xml version="1.0" encoding="utf-8"?>
<!-- Generator: Adobe Illustrator 24.0.2, SVG Export Plug-In . SVG Version: 6.00 Build 0)  -->
<svg version="1.1" id="Livello_1" xmlns="http://www.w3.org/2000/svg" xmlns:xlink="http://www.w3.org/1999/xlink" x="0px" y="0px"
	 viewBox="0 0 577.4 418.7" style="enable-background:new 0 0 577.4 418.7;" xml:space="preserve">
<style type="text/css">
	.st0{fill:none;}
	.st1{fill:#1B21F4;}
	.st2{fill:#5FFFD3;}
	.st3{fill:url(#SVGID_1_);}
	.st4{fill:none;stroke:#1B21F4;stroke-width:3;stroke-miterlimit:10;}
	.st5{clip-path:url(#SVGID_3_);fill:#1B21F4;}
	.st6{fill:#FFFFFF;}
	.st7{fill:none;stroke:#FFFFFF;stroke-linecap:round;stroke-miterlimit:10;}
	.st8{fill:none;stroke:#FFFFFF;stroke-width:3;stroke-linecap:round;stroke-miterlimit:10;}
</style>
<pattern  x="-634.6" y="-284.7" width="28.8" height="28.8" patternUnits="userSpaceOnUse" id="Nuovo_campione_pattern_1" viewBox="1.4 -30.2 28.8 28.8" style="overflow:visible;">
	<g>
		<rect x="1.4" y="-30.2" class="st0" width="28.8" height="28.8"/>
		<g>
			<path class="st1" d="M30.2,0c0.8,0,1.4-0.6,1.4-1.4c0-0.8-0.6-1.4-1.4-1.4c-0.8,0-1.4,0.6-1.4,1.4C28.8-0.6,29.4,0,30.2,0z"/>
			<path class="st1" d="M15.8,0c0.8,0,1.4-0.6,1.4-1.4c0-0.8-0.6-1.4-1.4-1.4c-0.8,0-1.4,0.6-1.4,1.4C14.4-0.6,15,0,15.8,0z"/>
			<path class="st1" d="M30.2-14.4c0.8,0,1.4-0.6,1.4-1.4c0-0.8-0.6-1.4-1.4-1.4c-0.8,0-1.4,0.6-1.4,1.4
				C28.8-15,29.4-14.4,30.2-14.4z"/>
			<path class="st1" d="M15.8-14.4c0.8,0,1.4-0.6,1.4-1.4c0-0.8-0.6-1.4-1.4-1.4c-0.8,0-1.4,0.6-1.4,1.4C14.4-15,15-14.4,15.8-14.4z
				"/>
			<path class="st1" d="M8.6-7.2c0.8,0,1.4-0.6,1.4-1.4c0-0.8-0.6-1.4-1.4-1.4c-0.8,0-1.4,0.6-1.4,1.4C7.2-7.8,7.8-7.2,8.6-7.2z"/>
			<path class="st1" d="M23-7.2c0.8,0,1.4-0.6,1.4-1.4c0-0.8-0.6-1.4-1.4-1.4c-0.8,0-1.4,0.6-1.4,1.4C21.6-7.8,22.2-7.2,23-7.2z"/>
			<path class="st1" d="M8.6-21.6c0.8,0,1.4-0.6,1.4-1.4c0-0.8-0.6-1.4-1.4-1.4c-0.8,0-1.4,0.6-1.4,1.4C7.2-22.2,7.8-21.6,8.6-21.6z
				"/>
			<path class="st1" d="M23-21.6c0.8,0,1.4-0.6,1.4-1.4c0-0.8-0.6-1.4-1.4-1.4c-0.8,0-1.4,0.6-1.4,1.4C21.6-22.2,22.2-21.6,23-21.6z
				"/>
		</g>
		<g>
			<path class="st1" d="M1.4,0c0.8,0,1.4-0.6,1.4-1.4c0-0.8-0.6-1.4-1.4-1.4C0.6-2.9,0-2.2,0-1.4C0-0.6,0.6,0,1.4,0z"/>
			<path class="st1" d="M1.4-14.4c0.8,0,1.4-0.6,1.4-1.4c0-0.8-0.6-1.4-1.4-1.4c-0.8,0-1.4,0.6-1.4,1.4C0-15,0.6-14.4,1.4-14.4z"/>
		</g>
		<g>
			<path class="st1" d="M30.2-28.8c0.8,0,1.4-0.6,1.4-1.4c0-0.8-0.6-1.4-1.4-1.4c-0.8,0-1.4,0.6-1.4,1.4
				C28.8-29.4,29.4-28.8,30.2-28.8z"/>
			<path class="st1" d="M15.8-28.8c0.8,0,1.4-0.6,1.4-1.4c0-0.8-0.6-1.4-1.4-1.4c-0.8,0-1.4,0.6-1.4,1.4
				C14.4-29.4,15-28.8,15.8-28.8z"/>
		</g>
		<g>
			<path class="st1" d="M1.4-28.8c0.8,0,1.4-0.6,1.4-1.4c0-0.8-0.6-1.4-1.4-1.4C0.6-31.7,0-31,0-30.2C0-29.4,0.6-28.8,1.4-28.8z"/>
		</g>
	</g>
</pattern>
<path class="st2" d="M484.6,217.4h-9.8c-5.9,0-10.7-4.8-10.7-10.7v0c0-5.4,4.4-9.8,9.8-9.8h0c5.9,0,10.7,4.8,10.7,10.7V217.4z"/>
<path class="st2" d="M484.6,152.9h-9.8c-5.9,0-10.7-4.8-10.7-10.7v0c0-5.4,4.4-9.8,9.8-9.8h0c5.9,0,10.7,4.8,10.7,10.7V152.9z"/>
<pattern  id="SVGID_1_" xlink:href="#Nuovo_campione_pattern_1" patternTransform="matrix(1 0 0 1 26.1574 2.5534)">
</pattern>
<circle class="st3" cx="224.6" cy="256" r="162.7"/>
<polygon class="st4" points="384.6,411.9 195.1,312.4 384.6,222.9 574.1,312.4 "/>
<path class="st4" d="M219.1,324c51-24.1,165.5-78.2,165.5-78.2s117,55.3,167.2,78.9"/>
<g>
	<defs>
		<polygon id="SVGID_2_" points="220.6,325.1 384.4,410.5 551.7,324.8 384.6,245.9 216.4,316.7 		"/>
	</defs>
	<clipPath id="SVGID_3_">
		<use xlink:href="#SVGID_2_"  style="overflow:visible;"/>
	</clipPath>
	<polygon class="st5" points="385.1,512.1 119.7,372.7 385.1,245.4 650.5,372.7 	"/>
</g>
<line class="st4" x1="384.6" y1="222.4" x2="384.6" y2="297.7"/>
<g>
	<path class="st6" d="M467.1,316.7c0,3.7,7,6.8,16.1,7.3v-14.7C474.1,309.9,467.1,313,467.1,316.7z"/>
	<path class="st6" d="M505.3,316.7c0-3.7-7-6.8-16.1-7.3v14.7C498.3,323.5,505.3,320.4,505.3,316.7z"/>
	<path class="st2" d="M483.2,60.9v248.5v14.7c1,0.1,2,0.1,3,0.1c1,0,2,0,3-0.1v-14.7V60.9H483.2z"/>
</g>
<g>
	<rect x="469.9" y="63.8" class="st1" width="32.3" height="14.9"/>
	<g>
		<path class="st6" d="M486.1,70.3c-8.5,0-15.6-2.9-15.6-6.2c0-3.4,7.2-6.2,15.6-6.2s15.6,2.9,15.6,6.2
			C501.7,67.5,494.5,70.3,486.1,70.3z"/>
		<path class="st1" d="M486.1,58.3c8.9,0,15.1,3,15.1,5.7c0,2.7-6.2,5.7-15.1,5.7c-8.9,0-15.1-3-15.1-5.7
			C470.9,61.4,477.2,58.3,486.1,58.3 M486.1,57.3c-8.9,0-16.1,3-16.1,6.7c0,3.7,7.2,6.7,16.1,6.7s16.1-3,16.1-6.7
			C502.2,60.4,495,57.3,486.1,57.3L486.1,57.3z"/>
	</g>
	<ellipse class="st1" cx="486" cy="78.8" rx="16.2" ry="6.8"/>
	<path class="st2" d="M512.6,26.4c0-15.6-13.5-28-29.5-26.3c-11.8,1.3-21.5,10.7-23.1,22.5c-1.4,10.3,3.1,19.6,10.5,25.1
		c3.5,2.6,5.7,6.6,5.7,11v3.4h19.8v-3.4c0-4.4,2.2-8.4,5.7-11C508.4,42.9,512.6,35.2,512.6,26.4z"/>
	<ellipse class="st2" cx="486.1" cy="61.9" rx="10" ry="4.2"/>
</g>
<g>
	<g>
		<path class="st6" d="M433.7,344.5c0,3.7,7,6.8,16.1,7.3v-14.7C440.6,337.7,433.7,340.8,433.7,344.5z"/>
		<path class="st6" d="M471.9,344.5c0-3.7-7-6.8-16.1-7.3v14.7C464.9,351.3,471.9,348.2,471.9,344.5z"/>
		<path class="st2" d="M449.8,164.7v172.5v14.7c1,0.1,2,0.1,3,0.1c1,0,2,0,3-0.1v-14.7V164.7H449.8z"/>
	</g>
	<g>
		<rect x="436.4" y="206.4" class="st1" width="32.3" height="14.9"/>
		<g>
			<path class="st6" d="M452.6,212.9c-8.5,0-15.6-2.9-15.6-6.2s7.2-6.2,15.6-6.2s15.6,2.9,15.6,6.2S461.1,212.9,452.6,212.9z"/>
			<path class="st1" d="M452.6,200.9c8.9,0,15.1,3,15.1,5.7s-6.2,5.7-15.1,5.7c-8.9,0-15.1-3-15.1-5.7S443.7,200.9,452.6,200.9
				 M452.6,199.9c-8.9,0-16.1,3-16.1,6.7s7.2,6.7,16.1,6.7s16.1-3,16.1-6.7S461.5,199.9,452.6,199.9L452.6,199.9z"/>
		</g>
		<ellipse class="st1" cx="452.6" cy="221.4" rx="16.2" ry="6.8"/>
		<g>
			<path class="st6" d="M452.6,207.7c-5.5,0-9-1.9-9-3.2c0-0.1,0-0.3,0.1-0.5l0.1-0.2v-2.4c0-4.6-2.3-9-6.1-11.8
				c-7.6-5.5-11.4-14.8-10.1-24.2c1.6-11.3,10.9-20.4,22.3-21.6c1-0.1,1.9-0.2,2.9-0.2c14,0,25.4,11.4,25.4,25.4
				c0,8.1-3.9,15.7-10.4,20.5c-3.8,2.8-6.1,7.2-6.1,11.8v3.1l0,0.1C461.5,205.9,458,207.7,452.6,207.7z"/>
			<path class="st1" d="M452.8,144.6c13.5,0,24.4,11,24.4,24.4c0,7.7-3.7,15.1-10,19.7c-4.1,3-6.5,7.7-6.5,12.6v3l0,0.1
				c-0.2,0.6-3,2.2-8,2.2c-5,0-7.8-1.6-8-2.2c0,0,0,0,0,0l0.3-0.5v-0.5v-2.2c0-4.9-2.4-9.6-6.5-12.6c-7.3-5.3-11-14.2-9.7-23.2
				c1.5-10.8,10.5-19.5,21.4-20.8C450.9,144.6,451.9,144.6,452.8,144.6 M452.8,142.6c-1,0-2,0.1-3,0.2
				c-11.8,1.3-21.5,10.7-23.1,22.5c-1.4,10.3,3.1,19.6,10.5,25.1c3.5,2.6,5.7,6.6,5.7,11v2.2c-0.2,0.3-0.3,0.6-0.3,1
				c0,2.3,4.5,4.2,10,4.2c5.4,0,9.8-1.8,10-4h0v-3.4c0-4.4,2.2-8.4,5.7-11c6.5-4.8,10.8-12.6,10.8-21.3
				C479.2,154.4,467.4,142.6,452.8,142.6L452.8,142.6z"/>
		</g>
	</g>
</g>
<g>
	<g>
		<path class="st6" d="M396.1,323.3c0,3.7,7,6.8,16.1,7.3V316C403.1,316.6,396.1,319.6,396.1,323.3z"/>
		<path class="st6" d="M434.4,323.3c0-3.7-7-6.8-16.1-7.3v14.7C427.4,330.1,434.4,327,434.4,323.3z"/>
		<path class="st2" d="M412.3,143.5V316v14.7c1,0.1,2,0.1,3,0.1c1,0,2,0,3-0.1V316V143.5H412.3z"/>
	</g>
	<g>
		<rect x="398.9" y="126.5" class="st1" width="32.3" height="14.9"/>
		<g>
			<path class="st6" d="M415.1,133c-8.5,0-15.6-2.9-15.6-6.2s7.2-6.2,15.6-6.2s15.6,2.9,15.6,6.2S423.6,133,415.1,133z"/>
			<path class="st1" d="M415.1,121c8.9,0,15.1,3,15.1,5.7s-6.2,5.7-15.1,5.7s-15.1-3-15.1-5.7S406.2,121,415.1,121 M415.1,120
				c-8.9,0-16.1,3-16.1,6.7s7.2,6.7,16.1,6.7s16.1-3,16.1-6.7S424,120,415.1,120L415.1,120z"/>
		</g>
		<ellipse class="st1" cx="415.1" cy="141.5" rx="16.2" ry="6.8"/>
		<path class="st1" d="M441.7,89.1c0-15.6-13.5-28-29.5-26.3c-11.8,1.3-21.5,10.7-23.1,22.5c-1.4,10.3,3.1,19.6,10.5,25.1
			c3.5,2.6,5.7,6.6,5.7,11v3.4h19.8v-3.4c0-4.4,2.2-8.4,5.7-11C437.4,105.6,441.7,97.9,441.7,89.1z"/>
		<ellipse class="st1" cx="415.1" cy="124.6" rx="10" ry="4.2"/>
	</g>
</g>
<g>
	<g>
		<path class="st0" d="M330.6,323.5c0,0.2-0.1,0.3-0.1,0.5c0,0,0,0.1,0,0.1c-0.2,0.7-0.3,1.2-0.3,1.2c1.2-0.9,1.9-2,1.9-3.2
			c0-0.9-0.4-1.7-1.1-2.5c0,0.2,0,0.4,0,0.6C330.9,321.3,330.8,322.4,330.6,323.5z"/>
		<path class="st0" d="M304.7,321.8c-0.1-0.5-0.1-1.1-0.1-1.6c0-0.4,0-0.7,0-1c-1,0.9-1.6,1.9-1.6,2.9c0,1.2,0.7,2.3,2,3.3l-0.7-3.4
			C304.4,321.9,304.5,321.9,304.7,321.8z"/>
		<path class="st6" d="M308.7,309.2c1.4,1.6,7.5,5.3,12.5,3.8c2.6-0.8,3.8-4.5,4-5.3c-2.1-1.7-4.7-2.7-7.5-2.7c-3,0-5.8,1.2-8,3.1
			C309.4,308.5,309,308.9,308.7,309.2z"/>
		<path class="st6" d="M330.5,324c0,0,0-0.1,0-0.1C330.5,324,330.5,324,330.5,324z"/>
		<path class="st6" d="M330.6,323.5c0.2-1.1,0.3-2.2,0.3-3.3c0-0.2,0-0.4,0-0.6c-0.2-4.2-1.9-8-4.5-10.6c0.1,0.1,0.3,0.3,0.4,0.5
			C331.4,314.8,331.1,320.7,330.6,323.5z"/>
		<path class="st1" d="M325.9,308.3c-0.4-0.4-0.6-0.6-0.6-0.6s0,0.1,0,0.2C325.4,307.9,325.6,308.1,325.9,308.3
			C325.8,308.2,325.8,308.2,325.9,308.3z"/>
		<path class="st1" d="M330.2,325.2c0,0,0.2-0.4,0.3-1.2C330.4,324.4,330.3,324.8,330.2,325.2z"/>
		<path class="st1" d="M330.5,323.9c0-0.1,0.1-0.3,0.1-0.5C330.6,323.6,330.5,323.8,330.5,323.9z"/>
		<path class="st1" d="M304.7,321.8c-0.2,0.1-0.3,0.1-0.3,0.1l0.7,3.4c0.1,0.1,0.2,0.2,0.4,0.3C305.1,324.4,304.8,323.1,304.7,321.8
			z"/>
		<path class="st2" d="M308.7,309.2c0.3-0.4,0.7-0.7,1.1-1c-13.9,1.5-24.2,7.1-24.2,13.8c0,7.9,14.3,14.2,32,14.2
			c17.7,0,32-6.4,32-14.2c0-6.6-10-12.1-23.7-13.8c0.2,0.2,0.4,0.4,0.6,0.6c2.6,2.6,4.3,6.4,4.5,10.6c0.7,0.8,1.1,1.6,1.1,2.5
			c0,1.2-0.7,2.2-1.9,3.2c-2.5,2-7.2,3.3-12.6,3.3c-5,0-9.5-1.1-12.1-2.9c-0.1-0.1-0.3-0.2-0.4-0.3c-1.3-1-2-2.1-2-3.3
			c0-1,0.6-2,1.6-2.9c0.2-3.6,1.6-6.8,3.6-9.3"/>
		<path class="st1" d="M326.4,308.9c-0.2-0.2-0.4-0.4-0.6-0.6c0,0-0.1,0-0.1,0C326,308.4,326.2,308.7,326.4,308.9z"/>
		<path class="st1" d="M321.2,313.1c-5,1.5-11-2.2-12.5-3.8c-0.2,0.2-0.3,0.4-0.5,0.6c0.7,1.7,2.2,6.5-0.1,8.9c-2,2.1-3,2.9-3.5,3.1
			c0.1,1.3,0.4,2.6,0.8,3.8c2.6,1.7,7,2.9,12.1,2.9c5.4,0,10.1-1.3,12.6-3.3c0.1-0.4,0.2-0.8,0.3-1.2c0,0,0-0.1,0-0.1
			c0-0.1,0.1-0.3,0.1-0.5c0.5-2.8,1.7-8.1-3.5-14.2c-0.1-0.2-1.7-1.3-1.9-1.5C325,308.6,323.7,312.3,321.2,313.1z"/>
	</g>
	<path class="st6" d="M308.2,309.8l-0.4,0c0,0-13.2,6.2-18.1,11.2c-4.8,5-2,6.9-2,6.9l0,0c1.6,0.1,2.3-2.6,5.8-5.3
		c1.9-1.5,7.7-3.6,11.2-4.4c0,0.3-0.1,0.6-0.1,1c0,0.3,0,0.7,0,1c0,0.6,0,1.1,0.1,1.6c0.4-0.3,1.5-1,3.5-3.1
		C310.4,316.3,308.4,309.6,308.2,309.8z"/>
	<path class="st6" d="M324,294.4c0,7-3.1,12.1-10.3,12.6c-5.7,0.4-10.3-3-10.3-10c0-7,4.6-12.8,10.3-12.8S324,287.4,324,294.4z"/>
	<path class="st2" d="M305.6,288.9c-2.5,6.8,6.1,7,4.2,11.4s-3.3,5.4-3.3,5.4s12.9,5.1,20.1-0.2c3.9-2.8,6.3-8.6,1.6-14.5
		C323.5,285.2,309.3,278.9,305.6,288.9z"/>
	<circle class="st6" cx="299.1" cy="328.8" r="2.5"/>
	<circle class="st6" cx="336.5" cy="316" r="1.2"/>
	<circle class="st6" cx="335.5" cy="328.2" r="3.1"/>
	<circle class="st6" cx="314" cy="329.9" r="1.2"/>
	<circle class="st6" cx="292.5" cy="316.3" r="0.5"/>
	<circle class="st6" cx="344.1" cy="322.2" r="0.5"/>
	<circle class="st6" cx="332.2" cy="311.6" r="0.5"/>
	<path class="st7" d="M356.3,318.4c2.6,2.5,4,5.4,4,8.4c0,9.5-14.4,17.3-33.1,18.6"/>
	<path class="st7" d="M309,344.4c-10.2-1.8-18.5-5.6-22.6-10.5"/>
	<path class="st7" d="M363.3,322.2c1.2,1.9,1.8,4,1.8,6.1c0,1.3-0.2,2.6-0.7,3.9"/>
	<path class="st7" d="M337.3,349c-5,1-10.4,1.6-16.1,1.6c-13.3,0-25.1-3-32.9-7.7"/>
</g>
<path class="st2" d="M413,186.7h-9.8c-5.9,0-10.7-4.8-10.7-10.7v0c0-5.4,4.4-9.8,9.8-9.8l0,0c5.9,0,10.7,4.8,10.7,10.7V186.7z"/>
<path class="st2" d="M451.2,277.5h-9.8c-5.9,0-10.7-4.8-10.7-10.7l0,0c0-5.4,4.4-9.8,9.8-9.8l0,0c5.9,0,10.7,4.8,10.7,10.7V277.5z"
	/>
<path class="st2" d="M451.5,345.9h-9.8c-5.9,0-10.7-4.8-10.7-10.7v0c0-5.4,4.4-9.8,9.8-9.8h0c5.9,0,10.7,4.8,10.7,10.7V345.9z"/>
<path class="st2" d="M413,286.6h-9.8c-5.9,0-10.7-4.8-10.7-10.7v0c0-5.4,4.4-9.8,9.8-9.8l0,0c5.9,0,10.7,4.8,10.7,10.7V286.6z"/>
<path class="st2" d="M415.1,241.2h9.8c5.9,0,10.7-4.8,10.7-10.7v0c0-5.4-4.4-9.8-9.8-9.8l0,0c-5.9,0-10.7,4.8-10.7,10.7V241.2z"/>
<path class="st2" d="M454,304.9h9.8c5.9,0,10.7-4.8,10.7-10.7v0c0-5.4-4.4-9.8-9.8-9.8h0c-5.9,0-10.7,4.8-10.7,10.7V304.9z"/>
<path class="st2" d="M487.5,119.7h9.8c5.9,0,10.7-4.8,10.7-10.7v0c0-5.4-4.4-9.8-9.8-9.8h0c-5.9,0-10.7,4.8-10.7,10.7V119.7z"/>
<path class="st2" d="M487.5,184.2h9.8c5.9,0,10.7-4.8,10.7-10.7v0c0-5.4-4.4-9.8-9.8-9.8h0c-5.9,0-10.7,4.8-10.7,10.7V184.2z"/>
<path class="st2" d="M487.5,248.7h9.8c5.9,0,10.7-4.8,10.7-10.7v0c0-5.4-4.4-9.8-9.8-9.8h0c-5.9,0-10.7,4.8-10.7,10.7V248.7z"/>
<path class="st2" d="M416.7,320.1h9.8c5.9,0,10.7-4.8,10.7-10.7l0,0c0-5.4-4.4-9.8-9.8-9.8l0,0c-5.9,0-10.7,4.8-10.7,10.7V320.1z"/>
<path class="st2" d="M484.6,276.5h-9.8c-5.9,0-10.7-4.8-10.7-10.7v0c0-5.4,4.4-9.8,9.8-9.8h0c5.9,0,10.7,4.8,10.7,10.7V276.5z"/>
<path class="st2" d="M235.3,130.4c0-3.5-39.6,44.4-88.4,44.4s-88.4-44.4-88.4-44.4S98,86,146.9,86S235.3,130.4,235.3,130.4z"/>
<circle class="st6" cx="147.3" cy="128.5" r="29.1"/>
<circle class="st1" cx="147.3" cy="128.5" r="11.4"/>
<g>
	<path class="st1" d="M150,180.2c0-2.6-29.4,33-65.6,33s-65.6-33-65.6-33s22.5-25.2,52.4-31.6c4.3-0.9,9.8,4,14.3,4
		c5.9,0,10.5-4.5,15.9-3.1C129.4,157.1,150,180.2,150,180.2z"/>
</g>
<polygon class="st1" points="213.8,180.7 191.8,180.7 213.8,158.7 "/>
<polygon class="st2" points="99.1,253.5 77,253.5 99.1,231.5 "/>
<polygon class="st1" points="101.2,268.8 88.6,268.8 101.2,256.2 "/>
<polygon class="st2" points="208.6,188.8 196,188.8 208.6,176.2 "/>
<polygon class="st2" points="64.2,260.3 58.4,260.3 64.2,254.6 "/>
<polygon class="st2" points="177.3,75.7 171.5,75.7 177.3,70 "/>
<polygon class="st1" points="229.1,76.6 223.3,76.6 229.1,70.9 "/>
<polygon class="st2" points="224.3,100.7 211.8,100.7 224.3,88.2 "/>
<polygon class="st1" points="214.6,83.7 192.6,83.7 214.6,61.7 "/>
<line class="st8" x1="25.8" y1="180.2" x2="142.8" y2="180.2"/>
</svg>
