<?xml version="1.0" encoding="UTF-8"?>
<svg width="40px" height="32px" viewBox="0 0 40 32" version="1.1" xmlns="http://www.w3.org/2000/svg" xmlns:xlink="http://www.w3.org/1999/xlink">
    <!-- Generator: Sketch 57.1 (83088) - https://sketch.com -->
    <title>Fill 1</title>
    <desc>Created with Sketch.</desc>
    <g id="HOME-Mobile" stroke="none" stroke-width="1" fill="none" fill-rule="evenodd">
        <g id="JAB20-Home-Mobile" transform="translate(-186.000000, -8787.000000)" fill="#1B21F4">
            <g id="NEWS" transform="translate(-44.000000, 7640.000000)">
                <g id="latest-tweet" transform="translate(64.000000, 1120.000000)">
                    <path d="M206,30.7877167 C204.527391,31.4305585 202.946522,31.864541 201.286087,32.0601327 C202.981304,31.0603467 204.282174,29.4767815 204.895217,27.590627 C203.30913,28.5159426 201.552609,29.1887438 199.683913,29.5508239 C198.186522,27.9805264 196.053478,27 193.693478,27 C189.161304,27 185.486957,30.6169484 185.486957,35.0778943 C185.486957,35.7113204 185.55913,36.3276268 185.699565,36.9186818 C178.879565,36.5822812 172.83087,33.3659319 168.784348,28.4782795 C168.077826,29.6719452 167.673043,31.0594907 167.673043,32.5399101 C167.673043,35.3423925 169.121739,37.8144661 171.323478,39.2636422 C169.97913,39.2216991 168.713043,38.8587631 167.606522,38.2535844 C167.605652,38.2869677 167.605652,38.3207789 167.605652,38.3550182 C167.605652,42.2689921 170.435217,45.5341322 174.188696,46.2758399 C173.50087,46.4607319 172.775652,46.5600257 172.026522,46.5600257 C171.498261,46.5600257 170.984783,46.5090948 170.483043,46.4149369 C171.527391,49.6240103 174.55913,51.9599829 178.14913,52.0246095 C175.34,54.1919538 171.802609,55.4832014 167.957391,55.4832014 C167.295217,55.4832014 166.642174,55.4446822 166,55.3693559 C169.631304,57.6621014 173.943913,59 178.58,59 C193.673913,59 201.92913,46.6897068 201.92913,36.0143377 C201.92913,35.6650974 201.921304,35.316285 201.905217,34.9691847 C203.508696,33.8307297 204.899565,32.408089 206,30.7877167" id="Fill-1"></path>
                </g>
            </g>
        </g>
    </g>
</svg>