<?xml version="1.0" encoding="utf-8"?>
<!-- Generator: Adobe Illustrator 24.0.3, SVG Export Plug-In . SVG Version: 6.00 Build 0)  -->
<svg version="1.1" id="Ebene_1" xmlns="http://www.w3.org/2000/svg" xmlns:xlink="http://www.w3.org/1999/xlink" x="0px" y="0px"
	 viewBox="0 0 414 29" style="enable-background:new 0 0 414 29;" xml:space="preserve">
<style type="text/css">
	.st0{fill-rule:evenodd;clip-rule:evenodd;fill:#1B21F4;}
</style>
<title>Fill 1 Copy</title>
<desc>Created with Sketch.</desc>
<g id="HOME-Mobile">
	<g id="JAB20-Home-Menu" transform="translate(0.000000, -606.000000)">
		<g id="MENU" transform="translate(-674.000000, 0.000000)">
			<g id="waves" transform="translate(0.000000, 540.000000)">
				<path id="Fill-1-Copy" class="st0" d="M1099.1,66H658v28.2c1,0.1,2.1,0.1,3.2,0.1c6.6,0,12.8-1.4,18-3.9c8.2-3.9,17.8-3.9,26,0
					c5.3,2.5,11.4,3.9,18,3.9c6.6,0,12.8-1.4,18-3.9c8.2-3.9,17.8-3.9,26,0c5.3,2.5,11.4,3.9,18,3.9c6.6,0,12.8-1.4,18-3.9
					c8.2-3.9,17.8-3.9,26,0c5.3,2.5,11.4,3.9,18,3.9c6.6,0,12.8-1.4,18-3.9c8.2-3.9,17.8-3.9,26,0c5.3,2.5,11.4,3.9,18,3.9
					c6.6,0,12.8-1.4,18-3.9c8.2-3.9,17.8-3.9,26,0c5.3,2.5,11.4,3.9,18,3.9c6.6,0,12.8-1.4,18-3.9c8.2-3.9,17.8-3.9,26,0
					c5.3,2.5,11.4,3.9,18,3.9c6.6,0,12.8-1.4,18-3.9c8.2-3.9,17.8-3.9,26,0c5.3,2.5,11.4,3.9,18,3.9c1.2,0,2.4-0.1,3.6-0.1V66z"/>
			</g>
		</g>
	</g>
</g>
</svg>
