<?xml version="1.0" encoding="UTF-8"?>
<svg width="213px" height="12px" viewBox="0 0 213 12" version="1.1" xmlns="http://www.w3.org/2000/svg" xmlns:xlink="http://www.w3.org/1999/xlink">
    <!-- Generator: Sketch 57.1 (83088) - https://sketch.com -->
    <title>Stroke 1</title>
    <desc>Created with Sketch.</desc>
    <g id="HOME-Mobile" stroke="none" stroke-width="1" fill="none" fill-rule="evenodd">
        <g id="JAB20-Home-Mobile" transform="translate(-103.000000, -1844.000000)" stroke="#1B21F4" stroke-width="3">
            <g id="ABOUT" transform="translate(-317.000000, 1258.000000)">
                <g id="BIG-BUTTON-Banners" transform="translate(393.000000, 442.000000)">
                    <path d="M27.427,153.978298 C27.7477627,153.992766 28.0709408,154 28.3955681,154 C33.8181005,154 38.7638364,151.962413 42.5062291,148.612572 C46.3974093,145.129143 52.4059133,145.129143 56.2975765,148.612572 C60.0399692,151.962413 64.984739,154 70.4082375,154 C75.8307698,154 80.7765058,151.962413 84.5188984,148.612572 C88.4100787,145.129143 94.4185826,145.129143 98.3097628,148.612572 C102.052156,151.962413 106.997891,154 112.420424,154 C117.843922,154 122.788692,151.962413 126.531085,148.612572 C130.422748,145.129143 136.431252,145.129143 140.322432,148.612572 C144.064825,151.962413 149.010561,154 154.433093,154 C159.856592,154 164.801361,151.962413 168.544237,148.612572 C172.435417,145.129143 178.443921,145.129143 182.335102,148.612572 C186.077977,151.962413 191.022747,154 196.446246,154 C201.868778,154 206.814031,151.962413 210.556907,148.612572 C214.448087,145.129143 220.456591,145.129143 224.348254,148.612572 C228.090647,151.962413 233.035416,154 238.458915,154 C238.783059,154 239.105754,153.992766 239.427,153.978298" id="Stroke-1"></path>
                </g>
            </g>
        </g>
    </g>
</svg>